<svg xmlns="http://www.w3.org/2000/svg" width="800" height="600" viewBox="0 0 800 600"><rect width="100%" height="100%" fill="#1a0a2e"/><path fill="#7a3fb0" d="M207.515 276.89h6.6v47h-7.7v-30.36q0-1.82.2-3.93l-14.21 26.68q-1.01 1.92-3.08 1.92h-1.24q-2.08 0-3.09-1.92l-14.36-26.77q.1 1.07.16 2.11.07 1.04.07 1.91v30.36h-7.71v-47h6.6q.58 0 1.01.04.42.03.76.16t.62.42.53.78l14.08 26.1q.55 1.04 1.02 2.14.47 1.11.93 2.28.45-1.2.94-2.32.49-1.13 1.04-2.17l13.88-26.03q.26-.49.55-.78t.63-.42.77-.16q.42-.04 1-.04m30.56 13.13q3.7 0 6.74 1.21 3.04 1.2 5.2 3.41t3.33 5.39q1.17 3.19 1.17 7.12 0 3.97-1.17 7.15-1.17 3.19-3.33 5.43t-5.2 3.44q-3.04 1.21-6.74 1.21-3.74 0-6.8-1.21-3.05-1.2-5.21-3.44t-3.35-5.43q-1.19-3.18-1.19-7.15 0-3.93 1.19-7.12 1.19-3.18 3.35-5.39t5.21-3.41q3.06-1.21 6.8-1.21m0 28.18q4.16 0 6.15-2.79 2-2.8 2-8.19 0-5.4-2-8.22-1.99-2.83-6.15-2.83-4.23 0-6.26 2.84t-2.03 8.21q0 5.36 2.03 8.17t6.26 2.81m33.7 6.21q-4.36 0-6.68-2.45-2.32-2.46-2.32-6.78v-18.62h-3.42q-.65 0-1.1-.43-.46-.42-.46-1.26v-3.19l5.37-.88 1.69-9.1q.16-.65.61-1 .46-.36 1.17-.36h4.16v10.5h8.91v5.72h-8.91v18.07q0 1.56.77 2.43.76.88 2.09.88.75 0 1.25-.18.51-.18.88-.37.38-.2.67-.37.29-.18.58-.18.36 0 .59.18.23.17.49.53l2.4 3.9q-1.75 1.46-4.03 2.21-2.27.75-4.71.75m13.32-33.86h8.06v33.34h-8.06zm9.17-9.72q0 1.04-.42 1.95-.43.91-1.13 1.59-.69.68-1.64 1.09-.94.41-2.01.41-1.04 0-1.97-.41-.92-.41-1.61-1.09-.68-.68-1.09-1.59-.4-.91-.4-1.95 0-1.07.4-2.02.41-.94 1.09-1.62.69-.69 1.61-1.09.93-.41 1.97-.41 1.07 0 2.01.41.95.4 1.64 1.09.7.68 1.13 1.62.42.95.42 2.02m21.84 9.19q3.7 0 6.74 1.21 3.04 1.2 5.2 3.41t3.33 5.39q1.17 3.19 1.17 7.12 0 3.97-1.17 7.15-1.17 3.19-3.33 5.43t-5.2 3.44q-3.04 1.21-6.74 1.21-3.74 0-6.79-1.21-3.06-1.2-5.22-3.44t-3.35-5.43q-1.18-3.18-1.18-7.15 0-3.93 1.18-7.12 1.19-3.18 3.35-5.39t5.22-3.41q3.05-1.21 6.79-1.21m0 28.18q4.16 0 6.16-2.79 2-2.8 2-8.19 0-5.4-2-8.22-2-2.83-6.16-2.83-4.23 0-6.26 2.84t-2.03 8.21q0 5.36 2.03 8.17t6.26 2.81m29.54-26.19.55 2.63q1.01-1.01 2.13-1.87t2.37-1.46q1.26-.6 2.69-.94 1.43-.35 3.12-.35 2.73 0 4.84.93t3.52 2.6q1.42 1.67 2.15 4 .73 2.32.73 5.12v21.22h-8.03v-21.22q0-3.06-1.39-4.73-1.4-1.68-4.26-1.68-2.08 0-3.9.95-1.82.94-3.45 2.56v24.12h-8.02v-33.34h4.9q1.56 0 2.05 1.46m91.13-15.12h6.6v47h-7.7v-30.36q0-1.82.19-3.93l-14.2 26.68q-1.01 1.92-3.09 1.92h-1.23q-2.08 0-3.09-1.92l-14.37-26.77q.1 1.07.17 2.11.06 1.04.06 1.91v30.36h-7.7v-47h6.6q.58 0 1 .04.43.03.77.16t.61.42q.28.29.54.78l14.07 26.1q.56 1.04 1.03 2.14.47 1.11.92 2.28.46-1.2.95-2.32.48-1.13 1.04-2.17l13.87-26.03q.26-.49.56-.78.29-.29.63-.42t.76-.16q.43-.04 1.01-.04m30.55 13.13q3.71 0 6.74 1.21 3.04 1.2 5.2 3.41 2.17 2.21 3.34 5.39 1.17 3.19 1.17 7.12 0 3.97-1.17 7.15-1.17 3.19-3.34 5.43-2.16 2.24-5.2 3.44-3.03 1.21-6.74 1.21-3.74 0-6.79-1.21-3.06-1.2-5.22-3.44t-3.35-5.43q-1.18-3.18-1.18-7.15 0-3.93 1.18-7.12 1.19-3.18 3.35-5.39t5.22-3.41q3.05-1.21 6.79-1.21m0 28.18q4.16 0 6.16-2.79 2-2.8 2-8.19 0-5.4-2-8.22-2-2.83-6.16-2.83-4.22 0-6.26 2.84-2.03 2.84-2.03 8.21 0 5.36 2.03 8.17 2.04 2.81 6.26 2.81m43.52-4.19v-14.95q-1.37-1.66-2.98-2.34-1.6-.68-3.46-.68-1.82 0-3.28.68t-2.5 2.06-1.59 3.51q-.56 2.13-.56 5.03 0 2.92.47 4.95.48 2.03 1.35 3.32.88 1.28 2.15 1.85t2.83.57q2.5 0 4.25-1.04 1.76-1.04 3.32-2.96m0-38.42h8.03v48.3h-4.91q-1.59 0-2.02-1.46l-.68-3.22q-2.01 2.31-4.63 3.74t-6.09 1.43q-2.73 0-5.01-1.14-2.27-1.14-3.92-3.3-1.64-2.16-2.53-5.34-.89-3.19-.89-7.28 0-3.71 1-6.89 1.01-3.19 2.9-5.53 1.88-2.34 4.51-3.66 2.64-1.31 5.92-1.31 2.79 0 4.78.87 1.98.88 3.54 2.38zm36.66 14.96h8.03v33.34h-4.91q-1.59 0-2.02-1.46l-.55-2.67q-2.05 2.08-4.52 3.37-2.47 1.28-5.81 1.28-2.73 0-4.83-.93-2.1-.92-3.53-2.61t-2.16-4.02q-.73-2.32-.73-5.12v-21.18h8.03v21.18q0 3.06 1.41 4.73 1.42 1.68 4.24 1.68 2.08 0 3.9-.93t3.45-2.55zm16.05-14.96h8.03v48.3h-8.03zm22.4 27.79h15.14q0-1.56-.44-2.94t-1.31-2.42q-.88-1.04-2.23-1.64t-3.14-.6q-3.47 0-5.47 1.98t-2.55 5.62m20.47 4.84h-20.64q.2 2.57.91 4.44.72 1.87 1.89 3.09t2.78 1.82 3.56.6 3.36-.45q1.41-.46 2.47-1.01 1.06-.56 1.85-1.01.8-.45 1.55-.45 1 0 1.49.74l2.31 2.93q-1.33 1.56-2.99 2.61-1.66 1.06-3.46 1.69-1.81.64-3.68.9-1.86.26-3.62.26-3.48 0-6.47-1.16-2.99-1.15-5.2-3.41t-3.47-5.59q-1.27-3.33-1.27-7.72 0-3.41 1.1-6.42 1.11-3 3.17-5.23 2.07-2.23 5.04-3.52 2.97-1.31 6.71-1.31 3.15 0 5.82 1.01 2.66 1.01 4.58 2.94 1.92 1.94 3.01 4.75t1.09 6.42q0 1.82-.39 2.45t-1.5.63m30.06-14.07-1.82 2.89q-.32.53-.68.74t-.91.21q-.58 0-1.25-.33-.67-.32-1.54-.73-.88-.41-2-.73-1.12-.33-2.65-.33-2.37 0-3.72 1.01t-1.35 2.63q0 1.08.7 1.81t1.85 1.28q1.15.56 2.62.99 1.46.44 2.97.96t2.97 1.19q1.47.67 2.62 1.69t1.85 2.45.7 3.45q0 2.4-.86 4.43-.86 2.04-2.55 3.51-1.69 1.48-4.18 2.31-2.48.83-5.73.83-1.73 0-3.37-.31t-3.15-.86-2.8-1.3q-1.28-.75-2.25-1.63l1.85-3.05q.36-.55.84-.85.49-.29 1.24-.29t1.41.42q.67.43 1.55.91.87.49 2.06.91 1.19.43 3.01.43 1.43 0 2.45-.34 1.02-.35 1.69-.9t.97-1.28q.31-.73.31-1.51 0-1.17-.7-1.92-.69-.75-1.85-1.3-1.15-.55-2.63-.99t-3.02-.96q-1.55-.52-3.03-1.22-1.47-.7-2.63-1.77-1.15-1.07-1.85-2.63t-.7-3.77q0-2.05.81-3.9.82-1.86 2.39-3.24 1.58-1.38 3.93-2.21 2.36-.83 5.45-.83 3.44 0 6.27 1.14t4.71 2.99"/></svg>