<svg width="25" height="26" viewBox="0 0 75 86" fill="none" xmlns="http://www.w3.org/2000/svg">
<ellipse cx="9.91869" cy="54.3771" rx="8.15808" ry="10.2637" transform="rotate(-7.80176 9.91869 54.3771)" fill="#2B7DBF"/>
<ellipse cx="8.19315" cy="10.197" rx="8.19315" ry="10.197" transform="matrix(-0.976848 -0.213933 -0.213933 0.976848 74.6006 46.1475)" fill="#2B7DBF"/>
<ellipse cx="25.8313" cy="37.7872" rx="9.15166" ry="12.399" fill="#2B7DBF"/>
<ellipse cx="48.6366" cy="37.7872" rx="9.22546" ry="12.399" fill="#2B7DBF"/>
<path d="M56.755 80.3732C61.8475 68.6378 49.5961 51.2198 36.2376 51.9588C22.4363 52.624 12.9894 72.4015 17.6391 80.3732C21.3588 86.7506 27.2582 85.9328 29.7429 84.7267C31.7356 84.1363 38.1565 82.365 44.4298 84.7267C50.7031 87.0884 55.5496 82.9068 56.755 80.3732Z" fill="#2B7DBF"/>
<path d="M68.8139 6.78994C68.7303 6.44916 68.5985 6.15017 68.4185 5.89297C68.2385 5.62935 68.0134 5.40752 67.7434 5.22748C67.4797 5.04102 67.1711 4.90278 66.8175 4.81276C66.4702 4.71631 66.0877 4.66808 65.6697 4.66808C64.7695 4.66808 64.0012 4.88349 63.3646 5.31429C62.7345 5.74509 62.2522 6.36557 61.9179 7.17573C61.59 7.9859 61.426 8.96324 61.426 10.1078C61.426 11.2651 61.5835 12.2553 61.8986 13.0784C62.2137 13.9014 62.683 14.5315 63.3067 14.9687C63.9304 15.406 64.7052 15.6246 65.6311 15.6246C66.4477 15.6246 67.1261 15.5056 67.6662 15.2677C68.2127 15.0298 68.621 14.6923 68.8911 14.255C69.1611 13.8178 69.2962 13.3034 69.2962 12.7119L70.2221 12.8083H65.7083V8.98896H74.4658V11.7281C74.4658 13.5284 74.0832 15.0684 73.3181 16.3479C72.5593 17.6211 71.5113 18.5984 70.1738 19.28C68.8429 19.9551 67.3158 20.2927 65.5926 20.2927C63.67 20.2927 61.9822 19.8844 60.529 19.0678C59.0759 18.2512 57.941 17.0874 57.1244 15.5764C56.3143 14.0653 55.9092 12.2682 55.9092 10.1849C55.9092 8.55172 56.1567 7.10501 56.6518 5.84475C57.1534 4.5845 57.8478 3.52035 58.7351 2.65232C59.6224 1.77786 60.648 1.1188 61.8118 0.675136C62.9756 0.225045 64.223 0 65.554 0C66.7242 0 67.8109 0.167177 68.8139 0.50153C69.8234 0.829453 70.714 1.29883 71.4855 1.90967C72.2636 2.51408 72.8905 3.23101 73.3663 4.06046C73.8421 4.88991 74.1314 5.79974 74.2343 6.78994H68.8139Z" fill="#2B7DBF"/>
<path d="M38.6592 20.0226V0.27002H47.1852C48.6512 0.27002 49.934 0.536859 51.0335 1.07054C52.133 1.60422 52.9881 2.37259 53.599 3.37565C54.2098 4.37871 54.5152 5.58109 54.5152 6.9828C54.5152 8.39737 54.2002 9.59011 53.57 10.561C52.9463 11.5319 52.0687 12.2649 50.937 12.76C49.8118 13.2551 48.4969 13.5027 46.9923 13.5027H41.8998V9.33613H45.9121C46.5422 9.33613 47.0791 9.25898 47.5228 9.10466C47.9728 8.94391 48.3168 8.68993 48.5547 8.34272C48.7991 7.99551 48.9213 7.5422 48.9213 6.9828C48.9213 6.41697 48.7991 5.95724 48.5547 5.6036C48.3168 5.24352 47.9728 4.9799 47.5228 4.81272C47.0791 4.63911 46.5422 4.55231 45.9121 4.55231H44.0217V20.0226H38.6592ZM50.2329 10.9565L55.1711 20.0226H49.3456L44.5232 10.9565H50.2329Z" fill="#2B7DBF"/>
<path d="M22.9881 20.0226H17.2012L23.7211 0.27002H31.0511L37.571 20.0226H31.7841L27.4632 5.70969H27.3089L22.9881 20.0226ZM21.9078 12.2296H32.7872V16.2418H21.9078V12.2296Z" fill="#2B7DBF"/>
<path d="M7.60011 20.0226H0V0.27002H7.52295C9.55478 0.27002 11.3101 0.665456 12.789 1.45633C14.2743 2.24077 15.4188 3.37243 16.2226 4.8513C17.0327 6.32374 17.4378 8.08874 17.4378 10.1463C17.4378 12.2039 17.0359 13.9721 16.2322 15.4509C15.4285 16.9234 14.2904 18.055 12.8179 18.8459C11.3455 19.6304 9.60622 20.0226 7.60011 20.0226ZM5.36251 15.4702H7.40721C8.38455 15.4702 9.21722 15.3127 9.90521 14.9976C10.5996 14.6826 11.1269 14.1392 11.487 13.3677C11.8535 12.5961 12.0367 11.5223 12.0367 10.1463C12.0367 8.7703 11.8502 7.69652 11.4773 6.92493C11.1108 6.15335 10.5707 5.61002 9.85699 5.29496C9.1497 4.9799 8.28167 4.82237 7.25289 4.82237H5.36251V15.4702Z" fill="#2B7DBF"/>
</svg>
