<svg width="1617" height="1025" viewBox="0 0 1617 1025" fill="none" xmlns="http://www.w3.org/2000/svg">
<rect width="1617" height="1025" fill="white"/>
<path d="M435.766 406.457C427.887 389.54 413.712 381.216 394.926 381.216C370.017 381.216 352.814 401.618 352.814 426.859C352.814 453.115 370.911 472.536 396.303 472.536C414.744 472.536 427.578 464.111 435.801 448.581H491.435C480.562 493.614 441.374 522.746 394.617 522.746C368.774 522.711 344.013 512.535 325.83 494.475C307.647 476.416 297.544 451.968 297.765 426.554C297.461 401.346 307.421 377.065 325.425 359.118C343.429 341.171 367.983 331.049 393.619 331.006C441.787 331.006 480.906 360.78 491.125 406.457H435.766Z" fill="#BBBBBB"/>
<path d="M628.136 520.811V421.283C628.136 397.807 618.854 384.416 598.628 384.416C577.847 384.416 567.768 396.478 567.768 419V520.811H512.734V288.398H567.768V357.056C575.734 342.37 593.64 333.579 615.529 333.579C657.644 333.579 683.17 359.679 683.17 406.973V520.811H628.136Z" fill="#BBBBBB"/>
<path fill-rule="evenodd" clip-rule="evenodd" d="M795.516 341.024V571.167L849.857 571.065V504.095C864.639 519.926 883.323 526.407 904.608 526.407C956.69 526.407 993.066 483.538 993.066 432.467C993.066 376.568 956.382 334.881 904.608 334.881C882.023 334.881 862.039 342.948 847.632 360.737H846.64V341.024H795.516ZM892.729 386.562C917.797 386.328 938.345 406.12 938.703 430.847C938.839 442.863 934.106 454.434 925.553 462.991C917.001 471.548 905.338 476.381 893.156 476.416C868.087 476.414 847.732 456.428 847.615 431.699C847.497 406.97 867.661 386.797 892.729 386.562Z" fill="#BBBBBB"/>
<path d="M772.253 268.061C772.253 247.203 755.344 230.294 734.486 230.294C713.628 230.294 696.719 247.203 696.719 268.061C696.719 288.919 713.628 305.828 734.486 305.828C755.344 305.828 772.253 288.919 772.253 268.061Z" fill="#0075C9"/>
<path d="M1113.14 268.061C1113.14 247.203 1096.23 230.294 1075.37 230.294C1054.51 230.294 1037.6 247.203 1037.6 268.061C1037.6 288.919 1054.51 305.828 1075.37 305.828C1096.23 305.828 1113.14 288.919 1113.14 268.061Z" fill="#0075C9"/>
<path d="M1245.96 520.809V419.987C1245.96 395.439 1237.34 383.986 1217.11 383.986C1194.88 383.986 1185.6 396.089 1185.6 420.636V520.809H1130.56V339.165H1181.96V358.447H1182.62C1194.22 339.814 1210.33 332.942 1232.7 332.942C1265.84 332.942 1301 351.267 1301 404.944V520.809H1245.96Z" fill="#BBBBBB"/>
<path d="M1103.45 520.811V338.755H1049.22V520.811H1103.45Z" fill="#BBBBBB"/>
<path d="M764.511 520.811V338.755H710.281V520.811H764.511Z" fill="#BBBBBB"/>
<path d="M1048.7 567.292C1040.77 638.627 980.096 692.616 907.857 692.616C835.619 692.616 774.944 638.627 767.015 567.292H712.227C720.006 668.906 805.265 747.411 907.84 747.411C1010.42 747.411 1095.67 668.906 1103.45 567.292H1048.7Z" fill="#0075C9"/>
<path fill-rule="evenodd" clip-rule="evenodd" d="M297.758 610.338H325.829V620.954H326.19C328.707 616.094 333.928 606.917 351.201 606.917V636.97C337.345 637.327 327.629 640.209 327.629 655.321V710.203H297.758V610.338ZM463.475 610.338H433.607V620.954H433.243C429.647 614.837 420.47 606.917 404.097 606.917C377.464 606.917 353.893 627.432 353.893 660.181C353.893 688.792 372.426 713.624 404.097 713.624C415.792 713.624 428.204 709.125 433.243 699.408H433.607V710.203H463.475V610.338ZM383.779 660.539C383.779 649.204 391.339 634.81 408.433 634.81C425.349 634.81 433.626 648.122 433.626 660.181C433.626 669.898 427.327 685.732 408.612 685.732C390.621 685.732 383.779 669.898 383.779 660.539V660.539ZM477.339 710.203H507.21V610.337H477.339V710.203ZM519.816 710.203H549.687V655.861C549.687 649.744 549.687 634.988 566.781 634.988C582.436 634.988 582.436 648.665 582.436 655.682V710.203H612.307V647.765C612.307 628.153 606.187 620.233 600.791 615.555C595.392 610.877 584.775 606.917 575.241 606.917C557.425 606.917 551.126 616.094 548.069 620.954H547.705V610.338H519.816V710.203Z" fill="#BBBCBC"/>
<mask id="mask0_82_16874" style="mask-type:luminance" maskUnits="userSpaceOnUse" x="474" y="567" width="37" height="37">
<path fill-rule="evenodd" clip-rule="evenodd" d="M474.484 567.432H510.095V603.042H474.484V567.432Z" fill="white"/>
</mask>
<g mask="url(#mask0_82_16874)">
<path fill-rule="evenodd" clip-rule="evenodd" d="M510.095 585.237C510.095 575.403 502.123 567.432 492.29 567.432C482.456 567.432 474.484 575.403 474.484 585.237C474.484 595.07 482.456 603.042 492.29 603.042C502.123 603.042 510.095 595.07 510.095 585.237" fill="#0077C7"/>
</g>
</svg>
