<?xml version="1.0" encoding="UTF-8"?>
<svg xmlns="http://www.w3.org/2000/svg" version="1.1" viewBox="0 0 30 36">
  <!-- Generator: Adobe Illustrator 29.8.1, SVG Export Plug-In . SVG Version: 2.1.1 Build 2)  -->
  <defs>
    <style>
      .st0 {
        display: none;
      }

      .st1 {
        fill: #4190ee;
      }
    </style>
  </defs>
  <g id="Layer_1" class="st0">
    <path class="st1" d="M5.33,24.71h7.31l-4.78-5.12c-2.03-2.17-2.03-5.7,0-7.88.72-.77,1.59-1.26,2.51-1.49-.55-.89-.88-1.95-.88-3.1,0-3.08,2.27-5.57,5.2-5.57h8.82c3.02,0,5.2,2.49,5.2,5.57s-2.33,5.57-5.2,5.57h-7.38l5.32,5.7c2.03,2.18,2.03,5.7,0,7.88-.75.81-1.68,1.31-2.65,1.52.35.75.55,1.6.55,2.49,0,3.08-2.33,5.57-5.2,5.57H5.33c-2.87,0-5.2-2.49-5.2-5.57s2.33-5.57,5.2-5.57h0ZM26.1,7.12c0-1.53-1.16-2.77-2.59-2.77h-8.82c-1.43,0-2.59,1.24-2.59,2.77s1.16,2.77,2.59,2.77h8.82c1.43,0,2.59-1.24,2.59-2.77h0ZM19.6,20.36l-6.23-6.68c-1.01-1.08-2.65-1.08-3.66,0-1.01,1.08-1.01,2.84,0,3.92l6.23,6.68c1.01,1.08,2.65,1.08,3.66,0,1.01-1.08,1.01-2.84,0-3.92ZM2.74,30.27c0,1.53,1.16,2.77,2.59,2.77h8.82c1.43,0,2.59-1.24,2.59-2.77s-1.16-2.77-2.59-2.77H5.33c-1.43,0-2.59,1.24-2.59,2.77Z"/>
  </g>
  <g id="Layer_2">
    <path class="st1" d="M15.01,1.52H5.95C2.99,1.52.6,3.91.6,6.86h0c0,2.95,2.39,5.34,5.34,5.34h9.06c2.95,0,5.34-2.39,5.34-5.34h0c0-2.95-2.39-5.34-5.34-5.34ZM17.67,6.86c0,1.47-1.19,2.66-2.66,2.66H5.95c-1.47,0-2.66-1.19-2.66-2.66h0c0-1.47,1.19-2.66,2.66-2.66h9.06c1.47,0,2.66,1.19,2.66,2.66h0Z"/>
    <path class="st1" d="M15.62,25.22l6.41-6.41c2.09-2.09,2.09-5.47,0-7.56h0c-2.09-2.09-5.47-2.09-7.56,0l-6.41,6.41c-2.09,2.09-2.09,5.47,0,7.56h0c2.09,2.09,5.47,2.09,7.56,0ZM9.96,23.33c-1.04-1.04-1.04-2.72,0-3.76l6.41-6.41c1.04-1.04,2.72-1.04,3.76,0h0c1.04,1.04,1.04,2.72,0,3.76l-6.41,6.41c-1.04,1.04-2.72,1.04-3.76,0h0Z"/>
    <path class="st1" d="M24.63,23.73h-9.06c-2.95,0-5.34,2.39-5.34,5.34h0c0,2.95,2.39,5.34,5.34,5.34h9.06c2.95,0,5.34-2.39,5.34-5.34h0c0-2.95-2.39-5.34-5.34-5.34ZM27.29,29.08c0,1.47-1.19,2.66-2.66,2.66h-9.06c-1.47,0-2.66-1.19-2.66-2.66h0c0-1.47,1.19-2.66,2.66-2.66h9.06c1.47,0,2.66,1.19,2.66,2.66h0Z"/>
  </g>
</svg>