<svg width="30" height="36" viewBox="0 0 30 36" fill="none" xmlns="http://www.w3.org/2000/svg">
<path d="M5.45814 24.3072H13.1367L8.11453 18.9283C5.98268 16.645 5.98268 12.9442 8.11453 10.6609C8.86718 9.85482 9.78441 9.33528 10.7507 9.09819C10.1684 8.16837 9.82868 7.04991 9.82868 5.84589C9.82868 2.6173 12.2146 0 15.2868 0H24.5419C27.7113 0 30 2.6173 30 5.84589C30 9.07448 27.5563 11.6918 24.5419 11.6918H16.796L22.3782 17.6706C24.5101 19.954 24.5101 23.6547 22.3782 25.938C21.5871 26.7853 20.6141 27.3172 19.5938 27.5358C19.9634 28.3233 20.1723 29.2119 20.1723 30.1541C20.1723 33.3827 17.7286 36 14.7141 36H5.45814C2.4437 36 2.11741e-07 33.3827 2.11741e-07 30.1541C2.11741e-07 26.9255 2.4437 24.3082 5.45814 24.3082V24.3072ZM27.2589 5.84589C27.2589 4.23881 26.0423 2.9348 24.5409 2.9348H15.2849C13.7844 2.9348 12.5669 4.23778 12.5669 5.84589C12.5669 7.45297 13.7834 8.75698 15.2849 8.75698H24.5419C26.0423 8.75698 27.2599 7.454 27.2599 5.84589H27.2589ZM20.4398 19.7457L13.8951 12.736C12.8335 11.599 11.1136 11.599 10.052 12.736C8.99038 13.873 8.99038 15.7151 10.052 16.8522L16.5967 23.8619C17.6583 24.9989 19.3782 24.9989 20.4398 23.8619C21.5014 22.7249 21.5014 20.8827 20.4398 19.7457ZM2.74013 30.1531C2.74013 31.7602 3.95669 33.0642 5.45814 33.0642H14.7141C16.2146 33.0642 17.4321 31.7612 17.4321 30.1531C17.4321 28.546 16.2156 27.242 14.7141 27.242H5.45814C3.95765 27.242 2.74013 28.545 2.74013 30.1531Z" fill="white"/>
</svg>
