<svg width="1024" height="768" viewBox="0 0 1024 768" fill="none" xmlns="http://www.w3.org/2000/svg">
<rect width="1024" height="768" fill="white"/>
<g filter="url(#filter0_d_464_5931)">
<rect x="64" y="406" width="287.389" height="312.707" rx="8.21111" fill="white"/>
</g>
<g clip-path="url(#clip0_464_5931)">
<path d="M114.259 605.763L111.166 599.919H112.247L114.738 604.887L117.215 599.919H118.282L115.217 605.763V609.485H114.259V605.763ZM126.719 605.749C126.719 608.117 125.063 609.595 122.955 609.595C120.848 609.595 119.247 608.117 119.247 605.749C119.247 603.368 120.889 601.904 122.983 601.904C125.09 601.904 126.719 603.368 126.719 605.749ZM120.218 605.749C120.218 607.802 121.532 608.76 122.955 608.76C124.365 608.76 125.733 607.802 125.733 605.749C125.733 603.697 124.392 602.739 122.969 602.739C121.546 602.739 120.218 603.697 120.218 605.749ZM134.938 602.013V609.485H133.98V608.172C133.528 609.116 132.543 609.609 131.435 609.609C129.738 609.609 128.397 608.568 128.397 606.379V602.013H129.341V606.269C129.341 607.925 130.244 608.774 131.613 608.774C133.008 608.774 133.98 607.898 133.98 606.078V602.013H134.938ZM140.443 605.749C140.443 603.382 141.962 601.904 144.069 601.904C145.944 601.904 147.162 602.903 147.504 604.449H146.478C146.231 603.382 145.328 602.725 144.069 602.725C142.605 602.725 141.414 603.724 141.414 605.749C141.414 607.775 142.605 608.787 144.069 608.787C145.328 608.787 146.218 608.144 146.478 607.049H147.504C147.162 608.541 145.944 609.595 144.069 609.595C141.962 609.595 140.443 608.117 140.443 605.749ZM148.835 605.736C148.835 603.395 150.355 601.904 152.407 601.904C153.913 601.904 154.939 602.711 155.363 603.655V602.013H156.321V609.485H155.363V607.829C154.925 608.787 153.885 609.595 152.394 609.595C150.355 609.595 148.835 608.076 148.835 605.736ZM155.363 605.749C155.363 603.888 154.118 602.739 152.585 602.739C151.011 602.739 149.807 603.833 149.807 605.736C149.807 607.624 151.011 608.76 152.585 608.76C154.118 608.76 155.363 607.61 155.363 605.749ZM164.105 609.485V605.216C164.105 603.56 163.202 602.711 161.834 602.711C160.438 602.711 159.466 603.587 159.466 605.407V609.485H158.508V602.013H159.466V603.286C159.945 602.355 160.903 601.876 162.012 601.876C163.709 601.876 165.05 602.916 165.05 605.106V609.485H164.105ZM170.486 605.749C170.486 603.382 172.005 601.904 174.112 601.904C175.987 601.904 177.205 602.903 177.547 604.449H176.521C176.275 603.382 175.371 602.725 174.112 602.725C172.648 602.725 171.458 603.724 171.458 605.749C171.458 607.775 172.648 608.787 174.112 608.787C175.371 608.787 176.261 608.144 176.521 607.049H177.547C177.205 608.541 175.987 609.595 174.112 609.595C172.005 609.595 170.486 608.117 170.486 605.749ZM179.317 609.485V599.358H180.275V603.286C180.754 602.369 181.739 601.876 182.875 601.876C184.531 601.876 185.858 602.916 185.858 605.106V609.485H184.914V605.216C184.914 603.56 184.011 602.711 182.642 602.711C181.246 602.711 180.275 603.587 180.275 605.407V609.485H179.317ZM187.977 609.485V602.013H188.935V609.485H187.977ZM188.456 600.604C188.073 600.604 187.758 600.303 187.758 599.892C187.758 599.481 188.073 599.194 188.456 599.194C188.839 599.194 189.154 599.481 189.154 599.892C189.154 600.303 188.839 600.604 188.456 600.604ZM192.048 603.655C192.486 602.711 193.526 601.904 195.018 601.904C197.057 601.904 198.576 603.395 198.576 605.736C198.576 608.076 197.057 609.595 195.018 609.595C193.526 609.595 192.486 608.774 192.048 607.843V613.016H191.104V602.013H192.048V603.655ZM197.605 605.736C197.605 603.833 196.4 602.739 194.826 602.739C193.307 602.739 192.048 603.888 192.048 605.749C192.048 607.61 193.307 608.76 194.826 608.76C196.4 608.76 197.605 607.624 197.605 605.736ZM204.094 609.485V602.013H205.052V609.485H204.094ZM204.573 600.604C204.19 600.604 203.875 600.303 203.875 599.892C203.875 599.481 204.19 599.194 204.573 599.194C204.957 599.194 205.271 599.481 205.271 599.892C205.271 600.303 204.957 600.604 204.573 600.604ZM212.819 609.485V605.216C212.819 603.56 211.916 602.711 210.547 602.711C209.151 602.711 208.18 603.587 208.18 605.407V609.485H207.222V602.013H208.18V603.286C208.659 602.355 209.617 601.876 210.725 601.876C212.422 601.876 213.763 602.916 213.763 605.106V609.485H212.819ZM221.088 609.485L218.748 602.013H219.719L221.58 608.514L223.674 602.013H224.632L226.699 608.527L228.546 602.013H229.491L227.15 609.485H226.192L224.126 603.218L222.059 609.485H221.088ZM230.796 609.485V602.013H231.754V609.485H230.796ZM231.275 600.604C230.892 600.604 230.578 600.303 230.578 599.892C230.578 599.481 230.892 599.194 231.275 599.194C231.659 599.194 231.973 599.481 231.973 599.892C231.973 600.303 231.659 600.604 231.275 600.604ZM234.197 607.46V602.821H233.157V602.013H234.197V600.138H235.169V602.013H237.222V602.821H235.169V607.46C235.169 608.377 235.484 608.664 236.346 608.664H237.222V609.485H236.196C234.895 609.485 234.197 608.952 234.197 607.46ZM238.802 609.485V599.358H239.76V603.286C240.239 602.369 241.224 601.876 242.36 601.876C244.016 601.876 245.343 602.916 245.343 605.106V609.485H244.399V605.216C244.399 603.56 243.496 602.711 242.127 602.711C240.731 602.711 239.76 603.587 239.76 605.407V609.485H238.802ZM250.779 605.736C250.779 603.395 252.298 601.904 254.351 601.904C255.857 601.904 256.883 602.711 257.307 603.655V602.013H258.265V609.485H257.307V607.829C256.869 608.787 255.829 609.595 254.338 609.595C252.298 609.595 250.779 608.076 250.779 605.736ZM257.307 605.749C257.307 603.888 256.062 602.739 254.529 602.739C252.955 602.739 251.751 603.833 251.751 605.736C251.751 607.624 252.955 608.76 254.529 608.76C256.062 608.76 257.307 607.61 257.307 605.749ZM266.049 609.485V605.216C266.049 603.56 265.146 602.711 263.778 602.711C262.382 602.711 261.41 603.587 261.41 605.407V609.485H260.452V602.013H261.41V603.286C261.889 602.355 262.847 601.876 263.956 601.876C265.653 601.876 266.994 602.916 266.994 605.106V609.485H266.049ZM271.822 608.391L274.285 602.013H275.271L270.837 613.002H269.838L271.288 609.444L268.223 602.013H269.277L271.822 608.391ZM281.283 605.311V609.485H280.325V602.013H281.283V603.341C281.694 602.424 282.556 601.876 283.842 601.876V602.875H283.582C282.337 602.875 281.283 603.436 281.283 605.311ZM284.845 605.736C284.845 603.395 286.364 601.904 288.417 601.904C289.923 601.904 290.949 602.711 291.373 603.655V602.013H292.331V609.485H291.373V607.829C290.935 608.787 289.895 609.595 288.404 609.595C286.364 609.595 284.845 608.076 284.845 605.736ZM291.373 605.749C291.373 603.888 290.128 602.739 288.595 602.739C287.021 602.739 285.817 603.833 285.817 605.736C285.817 607.624 287.021 608.76 288.595 608.76C290.128 608.76 291.373 607.61 291.373 605.749ZM294.518 609.485V602.013H295.476V609.485H294.518ZM294.997 600.604C294.614 600.604 294.299 600.303 294.299 599.892C294.299 599.481 294.614 599.194 294.997 599.194C295.38 599.194 295.695 599.481 295.695 599.892C295.695 600.303 295.38 600.604 294.997 600.604ZM303.243 609.485V605.216C303.243 603.56 302.339 602.711 300.971 602.711C299.575 602.711 298.603 603.587 298.603 605.407V609.485H297.645V602.013H298.603V603.286C299.082 602.355 300.04 601.876 301.149 601.876C302.846 601.876 304.187 602.916 304.187 605.106V609.485H303.243ZM124.379 627.749C124.379 625.382 125.898 623.904 128.005 623.904C129.88 623.904 131.098 624.903 131.44 626.449H130.414C130.167 625.382 129.264 624.725 128.005 624.725C126.541 624.725 125.35 625.724 125.35 627.749C125.35 629.775 126.541 630.787 128.005 630.787C129.264 630.787 130.154 630.144 130.414 629.049H131.44C131.098 630.541 129.88 631.595 128.005 631.595C125.898 631.595 124.379 630.117 124.379 627.749ZM139.682 624.013V631.485H138.724V630.172C138.273 631.116 137.288 631.609 136.179 631.609C134.482 631.609 133.141 630.568 133.141 628.379V624.013H134.085V628.269C134.085 629.925 134.988 630.774 136.357 630.774C137.753 630.774 138.724 629.898 138.724 628.078V624.013H139.682ZM147.042 629.501C147.042 630.705 145.989 631.595 144.442 631.595C142.745 631.595 141.555 630.746 141.432 629.378H142.417C142.499 630.199 143.211 630.787 144.429 630.787C145.496 630.787 146.098 630.213 146.098 629.501C146.098 627.653 141.609 628.735 141.609 625.929C141.609 624.821 142.663 623.904 144.237 623.904C145.838 623.904 146.892 624.752 146.974 626.189H146.016C145.961 625.354 145.346 624.725 144.21 624.725C143.211 624.725 142.581 625.259 142.581 625.915C142.581 627.941 147.001 626.86 147.042 629.501ZM149.119 629.46V624.821H148.079V624.013H149.119V622.138H150.091V624.013H152.144V624.821H150.091V629.46C150.091 630.377 150.406 630.664 151.268 630.664H152.144V631.485H151.117C149.817 631.485 149.119 630.952 149.119 629.46ZM160.758 627.749C160.758 630.117 159.102 631.595 156.995 631.595C154.887 631.595 153.286 630.117 153.286 627.749C153.286 625.368 154.928 623.904 157.022 623.904C159.129 623.904 160.758 625.368 160.758 627.749ZM154.257 627.749C154.257 629.802 155.571 630.76 156.995 630.76C158.404 630.76 159.773 629.802 159.773 627.749C159.773 625.697 158.431 624.739 157.008 624.739C155.585 624.739 154.257 625.697 154.257 627.749ZM173.425 631.485V627.216C173.425 625.56 172.563 624.711 171.235 624.711C169.881 624.711 168.923 625.614 168.923 627.435V631.485H167.978V627.216C167.978 625.56 167.102 624.711 165.775 624.711C164.406 624.711 163.462 625.614 163.462 627.435V631.485H162.504V624.013H163.462V625.3C163.941 624.355 164.885 623.876 165.939 623.876C167.185 623.876 168.252 624.465 168.704 625.71C169.114 624.492 170.209 623.876 171.4 623.876C173.055 623.876 174.369 624.916 174.369 627.106V631.485H173.425ZM179.685 624.725C178.331 624.725 177.14 625.601 177.03 627.339H182.286C182.327 625.601 181.068 624.725 179.685 624.725ZM183.148 629.118C182.806 630.527 181.601 631.595 179.726 631.595C177.605 631.595 176.059 630.117 176.059 627.749C176.059 625.368 177.578 623.904 179.726 623.904C181.916 623.904 183.257 625.464 183.257 627.366C183.257 627.667 183.257 627.859 183.23 628.119H177.03C177.113 629.87 178.331 630.787 179.726 630.787C180.999 630.787 181.861 630.117 182.135 629.118H183.148ZM185.968 627.311V631.485H185.01V624.013H185.968V625.341C186.378 624.424 187.241 623.876 188.527 623.876V624.875H188.267C187.022 624.875 185.968 625.436 185.968 627.311ZM190.817 630.842C190.817 631.239 190.516 631.554 190.132 631.554C189.735 631.554 189.434 631.239 189.434 630.842C189.434 630.445 189.735 630.144 190.132 630.144C190.516 630.144 190.817 630.445 190.817 630.842ZM199.672 629.159V621.919H200.63V629.159C200.63 630.609 199.672 631.581 198.166 631.581C196.62 631.581 195.621 630.582 195.621 628.967H196.592C196.606 629.925 197.03 630.733 198.166 630.733C199.275 630.733 199.672 629.953 199.672 629.159ZM209.512 624.013V631.485H208.554V630.172C208.102 631.116 207.117 631.609 206.008 631.609C204.311 631.609 202.97 630.568 202.97 628.379V624.013H203.914V628.269C203.914 629.925 204.818 630.774 206.186 630.774C207.582 630.774 208.554 629.898 208.554 628.078V624.013H209.512ZM216.872 629.501C216.872 630.705 215.818 631.595 214.272 631.595C212.575 631.595 211.384 630.746 211.261 629.378H212.246C212.328 630.199 213.04 630.787 214.258 630.787C215.325 630.787 215.927 630.213 215.927 629.501C215.927 627.653 211.439 628.735 211.439 625.929C211.439 624.821 212.492 623.904 214.066 623.904C215.667 623.904 216.721 624.752 216.803 626.189H215.845C215.791 625.354 215.175 624.725 214.039 624.725C213.04 624.725 212.41 625.259 212.41 625.915C212.41 627.941 216.831 626.86 216.872 629.501ZM218.949 629.46V624.821H217.909V624.013H218.949V622.138H219.92V624.013H221.973V624.821H219.92V629.46C219.92 630.377 220.235 630.664 221.097 630.664H221.973V631.485H220.947C219.647 631.485 218.949 630.952 218.949 629.46ZM226.87 627.749C226.87 625.382 228.39 623.904 230.497 623.904C232.372 623.904 233.59 624.903 233.932 626.449H232.906C232.659 625.382 231.756 624.725 230.497 624.725C229.033 624.725 227.842 625.724 227.842 627.749C227.842 629.775 229.033 630.787 230.497 630.787C231.756 630.787 232.646 630.144 232.906 629.049H233.932C233.59 630.541 232.372 631.595 230.497 631.595C228.39 631.595 226.87 630.117 226.87 627.749ZM236.659 627.311V631.485H235.701V624.013H236.659V625.341C237.07 624.424 237.932 623.876 239.218 623.876V624.875H238.958C237.713 624.875 236.659 625.436 236.659 627.311ZM243.848 624.725C242.493 624.725 241.303 625.601 241.193 627.339H246.448C246.489 625.601 245.23 624.725 243.848 624.725ZM247.31 629.118C246.968 630.527 245.764 631.595 243.889 631.595C241.768 631.595 240.222 630.117 240.222 627.749C240.222 625.368 241.741 623.904 243.889 623.904C246.079 623.904 247.42 625.464 247.42 627.366C247.42 627.667 247.42 627.859 247.393 628.119H241.193C241.275 629.87 242.493 630.787 243.889 630.787C245.162 630.787 246.024 630.117 246.298 629.118H247.31ZM248.735 627.736C248.735 625.395 250.254 623.904 252.307 623.904C253.812 623.904 254.838 624.711 255.263 625.655V624.013H256.22V631.485H255.263V629.829C254.825 630.787 253.785 631.595 252.293 631.595C250.254 631.595 248.735 630.076 248.735 627.736ZM255.263 627.749C255.263 625.888 254.017 624.739 252.484 624.739C250.911 624.739 249.706 625.833 249.706 627.736C249.706 629.624 250.911 630.76 252.484 630.76C254.017 630.76 255.263 629.61 255.263 627.749ZM258.681 629.46V624.821H257.641V624.013H258.681V622.138H259.653V624.013H261.706V624.821H259.653V629.46C259.653 630.377 259.968 630.664 260.83 630.664H261.706V631.485H260.679C259.379 631.485 258.681 630.952 258.681 629.46ZM266.474 624.725C265.119 624.725 263.929 625.601 263.819 627.339H269.074C269.115 625.601 267.856 624.725 266.474 624.725ZM269.936 629.118C269.594 630.527 268.39 631.595 266.515 631.595C264.394 631.595 262.848 630.117 262.848 627.749C262.848 625.368 264.367 623.904 266.515 623.904C268.705 623.904 270.046 625.464 270.046 627.366C270.046 627.667 270.046 627.859 270.019 628.119H263.819C263.901 629.87 265.119 630.787 266.515 630.787C267.788 630.787 268.65 630.117 268.924 629.118H269.936ZM275.116 627.736C275.116 625.395 276.635 623.904 278.688 623.904C280.193 623.904 281.22 624.711 281.644 625.655V624.013H282.602V631.485H281.644V629.829C281.206 630.787 280.166 631.595 278.674 631.595C276.635 631.595 275.116 630.076 275.116 627.736ZM281.644 627.749C281.644 625.888 280.399 624.739 278.866 624.739C277.292 624.739 276.088 625.833 276.088 627.736C276.088 629.624 277.292 630.76 278.866 630.76C280.399 630.76 281.644 629.61 281.644 627.749ZM290.386 631.485V627.216C290.386 625.56 289.483 624.711 288.114 624.711C286.718 624.711 285.747 625.587 285.747 627.407V631.485H284.789V624.013H285.747V625.286C286.226 624.355 287.184 623.876 288.292 623.876C289.989 623.876 291.33 624.916 291.33 627.106V631.485H290.386ZM125.702 649.736C125.702 647.395 127.221 645.904 129.273 645.904C130.779 645.904 131.805 646.711 132.229 647.655V646.013H133.187V653.485H132.229V651.829C131.792 652.787 130.751 653.595 129.26 653.595C127.221 653.595 125.702 652.076 125.702 649.736ZM132.229 649.749C132.229 647.888 130.984 646.739 129.451 646.739C127.878 646.739 126.673 647.833 126.673 649.736C126.673 651.624 127.878 652.76 129.451 652.76C130.984 652.76 132.229 651.61 132.229 649.749ZM134.936 649.749C134.936 647.382 136.456 645.904 138.563 645.904C140.438 645.904 141.656 646.903 141.998 648.449H140.972C140.725 647.382 139.822 646.725 138.563 646.725C137.099 646.725 135.908 647.724 135.908 649.749C135.908 651.775 137.099 652.787 138.563 652.787C139.822 652.787 140.712 652.144 140.972 651.049H141.998C141.656 652.541 140.438 653.595 138.563 653.595C136.456 653.595 134.936 652.117 134.936 649.749ZM143.329 649.749C143.329 647.382 144.848 645.904 146.956 645.904C148.831 645.904 150.049 646.903 150.391 648.449H149.364C149.118 647.382 148.215 646.725 146.956 646.725C145.492 646.725 144.301 647.724 144.301 649.749C144.301 651.775 145.492 652.787 146.956 652.787C148.215 652.787 149.104 652.144 149.364 651.049H150.391C150.049 652.541 148.831 653.595 146.956 653.595C144.848 653.595 143.329 652.117 143.329 649.749ZM159.194 649.749C159.194 652.117 157.538 653.595 155.431 653.595C153.323 653.595 151.722 652.117 151.722 649.749C151.722 647.368 153.364 645.904 155.458 645.904C157.566 645.904 159.194 647.368 159.194 649.749ZM152.694 649.749C152.694 651.802 154.008 652.76 155.431 652.76C156.84 652.76 158.209 651.802 158.209 649.749C158.209 647.697 156.868 646.739 155.445 646.739C154.021 646.739 152.694 647.697 152.694 649.749ZM167.414 646.013V653.485H166.456V652.172C166.004 653.116 165.019 653.609 163.91 653.609C162.213 653.609 160.872 652.568 160.872 650.379V646.013H161.816V650.269C161.816 651.925 162.72 652.774 164.088 652.774C165.484 652.774 166.456 651.898 166.456 650.078V646.013H167.414ZM175.198 653.485V649.216C175.198 647.56 174.295 646.711 172.926 646.711C171.53 646.711 170.559 647.587 170.559 649.407V653.485H169.601V646.013H170.559V647.286C171.038 646.355 171.996 645.876 173.104 645.876C174.801 645.876 176.142 646.916 176.142 649.106V653.485H175.198ZM178.535 651.46V646.821H177.494V646.013H178.535V644.138H179.506V646.013H181.559V646.821H179.506V651.46C179.506 652.377 179.821 652.664 180.683 652.664H181.559V653.485H180.533C179.233 653.485 178.535 652.952 178.535 651.46ZM186.456 649.736C186.456 647.395 187.975 645.904 190.028 645.904C191.534 645.904 192.56 646.711 192.984 647.655V646.013H193.942V653.485H192.984V651.829C192.546 652.787 191.506 653.595 190.015 653.595C187.975 653.595 186.456 652.076 186.456 649.736ZM192.984 649.749C192.984 647.888 191.739 646.739 190.206 646.739C188.632 646.739 187.428 647.833 187.428 649.736C187.428 651.624 188.632 652.76 190.206 652.76C191.739 652.76 192.984 651.61 192.984 649.749ZM201.726 653.485V649.216C201.726 647.56 200.823 646.711 199.455 646.711C198.059 646.711 197.087 647.587 197.087 649.407V653.485H196.129V646.013H197.087V647.286C197.566 646.355 198.524 645.876 199.633 645.876C201.329 645.876 202.671 646.916 202.671 649.106V653.485H201.726ZM204.351 649.736C204.351 647.395 205.87 645.904 207.937 645.904C209.278 645.904 210.4 646.643 210.879 647.628V643.358H211.837V653.485H210.879V651.816C210.441 652.801 209.401 653.595 207.923 653.595C205.87 653.595 204.351 652.076 204.351 649.736ZM210.879 649.749C210.879 647.888 209.634 646.739 208.101 646.739C206.527 646.739 205.323 647.833 205.323 649.736C205.323 651.624 206.527 652.76 208.101 652.76C209.634 652.76 210.879 651.61 210.879 649.749ZM224.814 649.749C224.814 652.117 223.158 653.595 221.05 653.595C218.943 653.595 217.342 652.117 217.342 649.749C217.342 647.368 218.984 645.904 221.078 645.904C223.185 645.904 224.814 647.368 224.814 649.749ZM218.313 649.749C218.313 651.802 219.627 652.76 221.05 652.76C222.46 652.76 223.828 651.802 223.828 649.749C223.828 647.697 222.487 646.739 221.064 646.739C219.641 646.739 218.313 647.697 218.313 649.749ZM226.806 653.485V646.821H225.766V646.013H226.806V645.493C226.806 643.892 227.559 643.126 229.448 643.126V643.947C228.175 643.947 227.764 644.412 227.764 645.493V646.013H229.502V646.821H227.764V653.485H226.806ZM231.257 653.485V646.821H230.217V646.013H231.257V645.493C231.257 643.892 232.009 643.126 233.898 643.126V643.947C232.625 643.947 232.215 644.412 232.215 645.493V646.013H233.953V646.821H232.215V653.485H231.257ZM241.926 652.391L244.389 646.013H245.374L240.94 657.002H239.941L241.392 653.444L238.327 646.013H239.38L241.926 652.391ZM253.708 649.749C253.708 652.117 252.052 653.595 249.944 653.595C247.837 653.595 246.236 652.117 246.236 649.749C246.236 647.368 247.878 645.904 249.972 645.904C252.079 645.904 253.708 647.368 253.708 649.749ZM247.207 649.749C247.207 651.802 248.521 652.76 249.944 652.76C251.354 652.76 252.722 651.802 252.722 649.749C252.722 647.697 251.381 646.739 249.958 646.739C248.535 646.739 247.207 647.697 247.207 649.749ZM261.927 646.013V653.485H260.969V652.172C260.517 653.116 259.532 653.609 258.424 653.609C256.727 653.609 255.385 652.568 255.385 650.379V646.013H256.33V650.269C256.33 651.925 257.233 652.774 258.601 652.774C259.997 652.774 260.969 651.898 260.969 650.078V646.013H261.927ZM267.432 649.736C267.432 647.395 268.951 645.904 271.003 645.904C272.481 645.904 273.535 646.697 273.959 647.642V646.013H274.917V653.677C274.917 655.771 273.48 657.153 271.428 657.153C269.498 657.153 268.157 656.168 267.856 654.608H268.8C269.115 655.62 270.059 656.318 271.428 656.318C272.851 656.318 273.959 655.374 273.959 653.677V651.829C273.521 652.787 272.481 653.595 271.003 653.595C268.951 653.595 267.432 652.076 267.432 649.736ZM273.959 649.749C273.959 647.888 272.714 646.739 271.181 646.739C269.607 646.739 268.403 647.833 268.403 649.736C268.403 651.624 269.607 652.76 271.181 652.76C272.714 652.76 273.959 651.61 273.959 649.749ZM284.138 649.749C284.138 652.117 282.483 653.595 280.375 653.595C278.268 653.595 276.666 652.117 276.666 649.749C276.666 647.368 278.309 645.904 280.402 645.904C282.51 645.904 284.138 647.368 284.138 649.749ZM277.638 649.749C277.638 651.802 278.952 652.76 280.375 652.76C281.785 652.76 283.153 651.802 283.153 649.749C283.153 647.697 281.812 646.739 280.389 646.739C278.965 646.739 277.638 647.697 277.638 649.749ZM286.733 652.842C286.733 653.239 286.432 653.554 286.049 653.554C285.652 653.554 285.351 653.239 285.351 652.842C285.351 652.445 285.652 652.144 286.049 652.144C286.432 652.144 286.733 652.445 286.733 652.842Z" fill="#9B9B9B"/>
</g>
<path d="M192.979 565.295H196.284L192.855 576.749H189.078L187.477 569.975L185.855 576.749H182.078L178.65 565.295H182.16L183.946 573.341L185.712 565.295H189.427L191.193 573.341L192.979 565.295ZM201.399 561.558V566.978C202.125 565.774 203.281 565.171 204.868 565.171C206.182 565.171 207.243 565.609 208.05 566.485C208.871 567.361 209.282 568.552 209.282 570.057V576.749H205.792V570.529C205.792 569.79 205.594 569.222 205.197 568.825C204.814 568.415 204.28 568.209 203.596 568.209C202.912 568.209 202.371 568.415 201.974 568.825C201.591 569.222 201.399 569.79 201.399 570.529V576.749H197.889V561.558H201.399ZM219.139 573.157C219.605 572.664 219.837 571.952 219.837 571.022C219.837 570.091 219.598 569.386 219.119 568.907C218.64 568.415 218.072 568.168 217.415 568.168C216.758 568.168 216.19 568.415 215.711 568.907C215.246 569.386 215.013 570.091 215.013 571.022C215.013 571.952 215.253 572.664 215.732 573.157C216.224 573.649 216.799 573.896 217.456 573.896C218.113 573.896 218.674 573.649 219.139 573.157ZM213.166 575.271C212.016 574.19 211.441 572.767 211.441 571.001C211.441 569.236 212.016 567.826 213.166 566.773C214.315 565.705 215.739 565.171 217.436 565.171C219.132 565.171 220.549 565.705 221.685 566.773C222.834 567.826 223.409 569.236 223.409 571.001C223.409 572.767 222.841 574.19 221.705 575.271C220.569 576.352 219.153 576.893 217.456 576.893C215.759 576.893 214.329 576.352 213.166 575.271ZM229.533 576.749C228.999 576.749 228.548 576.564 228.178 576.195C227.809 575.825 227.624 575.374 227.624 574.84C227.624 574.293 227.809 573.834 228.178 573.465C228.548 573.095 228.999 572.91 229.533 572.91C230.08 572.91 230.539 573.095 230.908 573.465C231.278 573.834 231.463 574.293 231.463 574.84C231.463 575.374 231.278 575.825 230.908 576.195C230.539 576.564 230.08 576.749 229.533 576.749ZM225.982 565.561C225.954 564.289 226.365 563.235 227.213 562.4C228.062 561.552 229.232 561.127 230.724 561.127C232.215 561.127 233.42 561.524 234.336 562.318C235.253 563.112 235.712 564.213 235.712 565.623C235.712 567.019 235.315 568.032 234.521 568.661C233.741 569.277 232.605 569.599 231.114 569.626V571.576H227.809V567.347H229.184C230.251 567.347 231.038 567.224 231.545 566.978C232.051 566.731 232.304 566.259 232.304 565.561C232.304 565.096 232.167 564.72 231.894 564.432C231.634 564.145 231.264 564.001 230.785 564.001C230.32 564.001 229.95 564.145 229.677 564.432C229.417 564.706 229.287 565.082 229.287 565.561H225.982Z" fill="#0077C8"/>
<path d="M187.993 473.469C187.993 469.085 184.439 465.53 180.054 465.53C175.67 465.53 172.115 469.085 172.115 473.469C172.115 477.854 175.67 481.409 180.054 481.409C184.439 481.409 187.993 477.854 187.993 473.469Z" fill="#0075C9"/>
<path d="M243.294 473.469C243.294 469.085 239.74 465.53 235.355 465.53C230.97 465.53 227.416 469.085 227.416 473.469C227.416 477.854 230.97 481.409 235.355 481.409C239.74 481.409 243.294 477.854 243.294 473.469Z" fill="#0075C9"/>
<path d="M230.951 499.059C229.661 510.662 219.792 519.444 208.042 519.444C196.291 519.444 186.422 510.662 185.133 499.059H176.221C177.486 515.587 191.354 528.357 208.039 528.357C224.723 528.357 238.591 515.587 239.857 499.059H230.951Z" fill="#0075C9"/>
<g filter="url(#filter1_d_464_5931)">
<rect x="368.496" y="406" width="287.389" height="312.707" rx="8.21111" fill="white"/>
</g>
<path d="M457.326 561.569V566.627C458.003 565.503 459.083 564.941 460.564 564.941C461.791 564.941 462.78 565.35 463.534 566.167C464.3 566.985 464.684 568.096 464.684 569.501V575.747H461.427V569.942C461.427 569.252 461.241 568.722 460.871 568.352C460.513 567.968 460.015 567.777 459.377 567.777C458.738 567.777 458.233 567.968 457.863 568.352C457.505 568.722 457.326 569.252 457.326 569.942V575.747H454.05V561.569H457.326ZM473.884 572.394C474.318 571.934 474.535 571.27 474.535 570.402C474.535 569.533 474.312 568.875 473.865 568.428C473.418 567.968 472.888 567.738 472.274 567.738C471.661 567.738 471.131 567.968 470.684 568.428C470.25 568.875 470.033 569.533 470.033 570.402C470.033 571.27 470.256 571.934 470.703 572.394C471.163 572.854 471.7 573.084 472.313 573.084C472.926 573.084 473.45 572.854 473.884 572.394ZM468.308 574.368C467.236 573.359 466.699 572.03 466.699 570.382C466.699 568.735 467.236 567.419 468.308 566.436C469.381 565.439 470.71 564.941 472.294 564.941C473.877 564.941 475.199 565.439 476.26 566.436C477.332 567.419 477.869 568.735 477.869 570.382C477.869 572.03 477.339 573.359 476.279 574.368C475.219 575.377 473.897 575.881 472.313 575.881C470.729 575.881 469.394 575.377 468.308 574.368ZM491.995 565.056H495.08L491.88 575.747H488.355L486.861 569.425L485.347 575.747H481.822L478.622 565.056H481.899L483.565 572.567L485.213 565.056H488.681L490.329 572.567L491.995 565.056ZM505.599 565.056V566.627C506.276 565.503 507.355 564.941 508.837 564.941C509.629 564.941 510.331 565.12 510.944 565.478C511.57 565.835 512.055 566.346 512.4 567.01C512.796 566.385 513.307 565.886 513.933 565.516C514.572 565.133 515.281 564.941 516.06 564.941C517.363 564.941 518.397 565.344 519.164 566.148C519.93 566.953 520.313 568.071 520.313 569.501V575.747H517.056V569.942C517.056 569.252 516.871 568.722 516.5 568.352C516.143 567.968 515.645 567.777 515.006 567.777C514.367 567.777 513.863 567.968 513.492 568.352C513.135 568.722 512.956 569.252 512.956 569.942V575.747H509.699V569.942C509.699 569.252 509.514 568.722 509.143 568.352C508.786 567.968 508.288 567.777 507.649 567.777C507.01 567.777 506.506 567.968 506.135 568.352C505.778 568.722 505.599 569.252 505.599 569.942V575.747H502.323V565.056H505.599ZM530.352 565.056H533.629V575.747H530.352V574.176C529.675 575.3 528.596 575.862 527.114 575.862C525.888 575.862 524.892 575.453 524.126 574.636C523.372 573.818 522.995 572.707 522.995 571.302V565.056H526.252V570.861C526.252 571.551 526.431 572.088 526.789 572.471C527.159 572.841 527.664 573.026 528.302 573.026C528.941 573.026 529.439 572.841 529.797 572.471C530.167 572.088 530.352 571.551 530.352 570.861V565.056ZM537.196 574.387C536.212 573.39 535.721 572.062 535.721 570.402C535.721 568.741 536.212 567.419 537.196 566.436C538.192 565.439 539.476 564.941 541.047 564.941C542.35 564.941 543.455 565.267 544.361 565.918C545.268 566.557 545.869 567.477 546.162 568.677H542.618C542.311 568.039 541.807 567.719 541.104 567.719C540.415 567.719 539.897 567.968 539.552 568.467C539.22 568.952 539.054 569.597 539.054 570.402C539.054 571.206 539.22 571.858 539.552 572.356C539.897 572.841 540.395 573.084 541.047 573.084C541.456 573.084 541.775 573.014 542.005 572.873C542.235 572.733 542.439 572.484 542.618 572.126H546.162C545.869 573.276 545.262 574.189 544.342 574.866C543.423 575.543 542.324 575.881 541.047 575.881C539.476 575.881 538.192 575.383 537.196 574.387ZM551.27 561.569V566.627C551.947 565.503 553.027 564.941 554.508 564.941C555.735 564.941 556.724 565.35 557.478 566.167C558.244 566.985 558.628 568.096 558.628 569.501V575.747H555.371V569.942C555.371 569.252 555.185 568.722 554.815 568.352C554.457 567.968 553.959 567.777 553.321 567.777C552.682 567.777 552.177 567.968 551.807 568.352C551.449 568.722 551.27 569.252 551.27 569.942V575.747H547.994V561.569H551.27ZM565.011 575.747C564.513 575.747 564.092 575.575 563.747 575.23C563.402 574.885 563.23 574.463 563.23 573.965C563.23 573.454 563.402 573.026 563.747 572.682C564.092 572.337 564.513 572.164 565.011 572.164C565.522 572.164 565.95 572.337 566.295 572.682C566.64 573.026 566.812 573.454 566.812 573.965C566.812 574.463 566.64 574.885 566.295 575.23C565.95 575.575 565.522 575.747 565.011 575.747ZM561.697 565.305C561.671 564.117 562.054 563.134 562.846 562.355C563.638 561.563 564.73 561.167 566.123 561.167C567.515 561.167 568.639 561.537 569.495 562.278C570.35 563.019 570.778 564.047 570.778 565.363C570.778 566.666 570.408 567.611 569.667 568.198C568.939 568.773 567.879 569.073 566.487 569.099V570.919H563.402V566.972H564.686C565.682 566.972 566.416 566.857 566.889 566.627C567.362 566.397 567.598 565.957 567.598 565.305C567.598 564.871 567.47 564.52 567.215 564.252C566.972 563.983 566.627 563.849 566.18 563.849C565.746 563.849 565.401 563.983 565.146 564.252C564.903 564.507 564.781 564.858 564.781 565.305H561.697Z" fill="#0077C8"/>
<g clip-path="url(#clip1_464_5931)">
<path d="M405.051 604.696C405.051 601.822 407.077 599.81 409.732 599.81C411.866 599.81 413.454 600.877 414.138 602.711H413.016C412.482 601.438 411.36 600.645 409.732 600.645C407.638 600.645 406.037 602.191 406.037 604.696C406.037 607.186 407.638 608.733 409.732 608.733C411.36 608.733 412.482 607.939 413.016 606.694H414.138C413.454 608.5 411.866 609.567 409.732 609.567C407.077 609.567 405.051 607.569 405.051 604.696ZM423.081 605.749C423.081 608.117 421.425 609.595 419.318 609.595C417.21 609.595 415.609 608.117 415.609 605.749C415.609 603.368 417.251 601.904 419.345 601.904C421.453 601.904 423.081 603.368 423.081 605.749ZM416.581 605.749C416.581 607.802 417.895 608.76 419.318 608.76C420.727 608.76 422.096 607.802 422.096 605.749C422.096 603.697 420.755 602.739 419.332 602.739C417.908 602.739 416.581 603.697 416.581 605.749ZM423.938 602.013H424.964L427.482 608.555L430.001 602.013H431.013L428.016 609.485H426.935L423.938 602.013ZM435.5 602.725C434.145 602.725 432.955 603.601 432.845 605.339H438.1C438.142 603.601 436.882 602.725 435.5 602.725ZM438.963 607.118C438.62 608.527 437.416 609.595 435.541 609.595C433.42 609.595 431.874 608.117 431.874 605.749C431.874 603.368 433.393 601.904 435.541 601.904C437.731 601.904 439.072 603.464 439.072 605.366C439.072 605.667 439.072 605.859 439.045 606.119H432.845C432.927 607.87 434.145 608.787 435.541 608.787C436.814 608.787 437.676 608.117 437.95 607.118H438.963ZM441.783 605.311V609.485H440.825V602.013H441.783V603.341C442.193 602.424 443.055 601.876 444.342 601.876V602.875H444.082C442.836 602.875 441.783 603.436 441.783 605.311ZM449.812 607.46V602.821H448.772V602.013H449.812V600.138H450.784V602.013H452.837V602.821H450.784V607.46C450.784 608.377 451.098 608.664 451.961 608.664H452.837V609.485H451.81C450.51 609.485 449.812 608.952 449.812 607.46ZM454.416 609.485V599.358H455.374V603.286C455.853 602.369 456.839 601.876 457.975 601.876C459.63 601.876 460.958 602.916 460.958 605.106V609.485H460.014V605.216C460.014 603.56 459.11 602.711 457.742 602.711C456.346 602.711 455.374 603.587 455.374 605.407V609.485H454.416ZM466.265 602.725C464.91 602.725 463.72 603.601 463.61 605.339H468.865C468.906 603.601 467.647 602.725 466.265 602.725ZM469.728 607.118C469.385 608.527 468.181 609.595 466.306 609.595C464.185 609.595 462.639 608.117 462.639 605.749C462.639 603.368 464.158 601.904 466.306 601.904C468.496 601.904 469.837 603.464 469.837 605.366C469.837 605.667 469.837 605.859 469.81 606.119H463.61C463.692 607.87 464.91 608.787 466.306 608.787C467.579 608.787 468.441 608.117 468.715 607.118H469.728ZM476.796 609.485L474.456 602.013H475.427L477.288 608.514L479.382 602.013H480.34L482.407 608.527L484.254 602.013H485.198L482.858 609.485H481.9L479.834 603.218L477.767 609.485H476.796ZM486.504 609.485V599.358H487.462V603.286C487.941 602.369 488.927 601.876 490.063 601.876C491.718 601.876 493.046 602.916 493.046 605.106V609.485H492.102V605.216C492.102 603.56 491.198 602.711 489.83 602.711C488.434 602.711 487.462 603.587 487.462 605.407V609.485H486.504ZM502.199 605.749C502.199 608.117 500.543 609.595 498.435 609.595C496.328 609.595 494.727 608.117 494.727 605.749C494.727 603.368 496.369 601.904 498.463 601.904C500.57 601.904 502.199 603.368 502.199 605.749ZM495.698 605.749C495.698 607.802 497.012 608.76 498.435 608.76C499.845 608.76 501.213 607.802 501.213 605.749C501.213 603.697 499.872 602.739 498.449 602.739C497.026 602.739 495.698 603.697 495.698 605.749ZM503.945 609.485V599.358H504.903V609.485H503.945ZM510.261 602.725C508.906 602.725 507.716 603.601 507.606 605.339H512.861C512.902 603.601 511.643 602.725 510.261 602.725ZM513.723 607.118C513.381 608.527 512.177 609.595 510.302 609.595C508.181 609.595 506.634 608.117 506.634 605.749C506.634 603.368 508.153 601.904 510.302 601.904C512.492 601.904 513.833 603.464 513.833 605.366C513.833 605.667 513.833 605.859 513.805 606.119H507.606C507.688 607.87 508.906 608.787 510.302 608.787C511.575 608.787 512.437 608.117 512.711 607.118H513.723ZM520.285 603.669C520.75 602.684 521.791 601.904 523.255 601.904C525.308 601.904 526.813 603.395 526.813 605.736C526.813 608.076 525.294 609.595 523.255 609.595C521.763 609.595 520.737 608.815 520.285 607.843V609.485H519.341V599.358H520.285V603.669ZM525.841 605.736C525.841 603.833 524.637 602.739 523.063 602.739C521.544 602.739 520.285 603.888 520.285 605.749C520.285 607.61 521.544 608.76 523.063 608.76C524.637 608.76 525.841 607.624 525.841 605.736ZM528.576 609.485V602.013H529.534V609.485H528.576ZM529.055 600.604C528.671 600.604 528.357 600.303 528.357 599.892C528.357 599.481 528.671 599.194 529.055 599.194C529.438 599.194 529.753 599.481 529.753 599.892C529.753 600.303 529.438 600.604 529.055 600.604ZM531.703 609.485V599.358H532.661V609.485H531.703ZM534.83 609.485V599.358H535.788V609.485H534.83ZM536.753 611.483L537.766 607.898H538.833L537.424 611.483H536.753ZM551.113 605.749C551.113 608.117 549.457 609.595 547.349 609.595C545.242 609.595 543.641 608.117 543.641 605.749C543.641 603.368 545.283 601.904 547.377 601.904C549.484 601.904 551.113 603.368 551.113 605.749ZM544.612 605.749C544.612 607.802 545.926 608.76 547.349 608.76C548.759 608.76 550.127 607.802 550.127 605.749C550.127 603.697 548.786 602.739 547.363 602.739C545.94 602.739 544.612 603.697 544.612 605.749ZM553.817 605.311V609.485H552.859V602.013H553.817V603.341C554.227 602.424 555.09 601.876 556.376 601.876V602.875H556.116C554.871 602.875 553.817 603.436 553.817 605.311ZM562.12 600.604C561.737 600.604 561.422 600.303 561.422 599.892C561.422 599.481 561.737 599.194 562.12 599.194C562.503 599.194 562.804 599.481 562.804 599.892C562.804 600.303 562.503 600.604 562.12 600.604ZM561.627 602.013H562.585V611.251C562.585 612.455 561.983 613.016 560.779 613.016H560.108V612.195H560.628C561.34 612.195 561.627 611.935 561.627 611.21V602.013ZM571.253 602.013V609.485H570.295V608.172C569.843 609.116 568.858 609.609 567.75 609.609C566.053 609.609 564.712 608.568 564.712 606.379V602.013H565.656V606.269C565.656 607.925 566.559 608.774 567.928 608.774C569.323 608.774 570.295 607.898 570.295 606.078V602.013H571.253ZM578.613 607.501C578.613 608.705 577.559 609.595 576.013 609.595C574.316 609.595 573.125 608.746 573.002 607.378H573.988C574.07 608.199 574.781 608.787 575.999 608.787C577.067 608.787 577.669 608.213 577.669 607.501C577.669 605.653 573.18 606.735 573.18 603.929C573.18 602.821 574.234 601.904 575.808 601.904C577.409 601.904 578.463 602.752 578.545 604.189H577.587C577.532 603.354 576.916 602.725 575.78 602.725C574.781 602.725 574.152 603.259 574.152 603.915C574.152 605.941 578.572 604.86 578.613 607.501ZM580.69 607.46V602.821H579.65V602.013H580.69V600.138H581.662V602.013H583.714V602.821H581.662V607.46C581.662 608.377 581.976 608.664 582.839 608.664H583.714V609.485H582.688C581.388 609.485 580.69 608.952 580.69 607.46ZM588.612 605.736C588.612 603.395 590.131 601.904 592.184 601.904C593.689 601.904 594.715 602.711 595.14 603.655V602.013H596.098V609.485H595.14V607.829C594.702 608.787 593.662 609.595 592.17 609.595C590.131 609.595 588.612 608.076 588.612 605.736ZM595.14 605.749C595.14 603.888 593.894 602.739 592.362 602.739C590.788 602.739 589.584 603.833 589.584 605.736C589.584 607.624 590.788 608.76 592.362 608.76C593.894 608.76 595.14 607.61 595.14 605.749ZM602.984 603.669C603.45 602.684 604.49 601.904 605.954 601.904C608.007 601.904 609.512 603.395 609.512 605.736C609.512 608.076 607.993 609.595 605.954 609.595C604.462 609.595 603.436 608.815 602.984 607.843V609.485H602.04V599.358H602.984V603.669ZM608.541 605.736C608.541 603.833 607.336 602.739 605.762 602.739C604.243 602.739 602.984 603.888 602.984 605.749C602.984 607.61 604.243 608.76 605.762 608.76C607.336 608.76 608.541 607.624 608.541 605.736ZM611.275 609.485V602.013H612.233V609.485H611.275ZM611.754 600.604C611.371 600.604 611.056 600.303 611.056 599.892C611.056 599.481 611.371 599.194 611.754 599.194C612.137 599.194 612.452 599.481 612.452 599.892C612.452 600.303 612.137 600.604 611.754 600.604ZM614.676 607.46V602.821H613.636V602.013H614.676V600.138H615.647V602.013H617.7V602.821H615.647V607.46C615.647 608.377 615.962 608.664 616.824 608.664H617.7V609.485H616.674C615.374 609.485 614.676 608.952 614.676 607.46ZM620.129 608.842C620.129 609.239 619.828 609.554 619.444 609.554C619.048 609.554 618.746 609.239 618.746 608.842C618.746 608.445 619.048 608.144 619.444 608.144C619.828 608.144 620.129 608.445 620.129 608.842ZM408.907 626.696C408.907 623.822 410.932 621.81 413.587 621.81C415.722 621.81 417.31 622.877 417.994 624.711H416.872C416.338 623.438 415.216 622.645 413.587 622.645C411.493 622.645 409.892 624.191 409.892 626.696C409.892 629.186 411.493 630.733 413.587 630.733C415.216 630.733 416.338 629.939 416.872 628.694H417.994C417.31 630.5 415.722 631.567 413.587 631.567C410.932 631.567 408.907 629.569 408.907 626.696ZM419.465 627.736C419.465 625.395 420.984 623.904 423.037 623.904C424.542 623.904 425.568 624.711 425.993 625.655V624.013H426.951V631.485H425.993V629.829C425.555 630.787 424.515 631.595 423.023 631.595C420.984 631.595 419.465 630.076 419.465 627.736ZM425.993 627.749C425.993 625.888 424.747 624.739 423.215 624.739C421.641 624.739 420.436 625.833 420.436 627.736C420.436 629.624 421.641 630.76 423.215 630.76C424.747 630.76 425.993 629.61 425.993 627.749ZM434.735 631.485V627.216C434.735 625.56 433.832 624.711 432.463 624.711C431.067 624.711 430.096 625.587 430.096 627.407V631.485H429.138V624.013H430.096V625.286C430.575 624.355 431.532 623.876 432.641 623.876C434.338 623.876 435.679 624.916 435.679 627.106V631.485H434.735ZM437.36 627.749C437.36 625.382 438.879 623.904 440.986 623.904C442.861 623.904 444.079 624.903 444.421 626.449H443.395C443.149 625.382 442.245 624.725 440.986 624.725C439.522 624.725 438.331 625.724 438.331 627.749C438.331 629.775 439.522 630.787 440.986 630.787C442.245 630.787 443.135 630.144 443.395 629.049H444.421C444.079 630.541 442.861 631.595 440.986 631.595C438.879 631.595 437.36 630.117 437.36 627.749ZM449.379 624.725C448.024 624.725 446.834 625.601 446.724 627.339H451.979C452.02 625.601 450.761 624.725 449.379 624.725ZM452.842 629.118C452.499 630.527 451.295 631.595 449.42 631.595C447.299 631.595 445.753 630.117 445.753 627.749C445.753 625.368 447.272 623.904 449.42 623.904C451.61 623.904 452.951 625.464 452.951 627.366C452.951 627.667 452.951 627.859 452.924 628.119H446.724C446.806 629.87 448.024 630.787 449.42 630.787C450.693 630.787 451.555 630.117 451.829 629.118H452.842ZM454.704 631.485V621.358H455.662V631.485H454.704ZM456.627 633.483L457.639 629.898H458.707L457.297 633.483H456.627ZM470.986 627.749C470.986 630.117 469.33 631.595 467.223 631.595C465.115 631.595 463.514 630.117 463.514 627.749C463.514 625.368 465.156 623.904 467.25 623.904C469.358 623.904 470.986 625.368 470.986 627.749ZM464.486 627.749C464.486 629.802 465.799 630.76 467.223 630.76C468.632 630.76 470.001 629.802 470.001 627.749C470.001 625.697 468.66 624.739 467.236 624.739C465.813 624.739 464.486 625.697 464.486 627.749ZM473.69 627.311V631.485H472.732V624.013H473.69V625.341C474.101 624.424 474.963 623.876 476.249 623.876V624.875H475.989C474.744 624.875 473.69 625.436 473.69 627.311ZM481.008 627.749C481.008 625.382 482.527 623.904 484.635 623.904C486.51 623.904 487.727 624.903 488.07 626.449H487.043C486.797 625.382 485.894 624.725 484.635 624.725C483.17 624.725 481.98 625.724 481.98 627.749C481.98 629.775 483.17 630.787 484.635 630.787C485.894 630.787 486.783 630.144 487.043 629.049H488.07C487.727 630.541 486.51 631.595 484.635 631.595C482.527 631.595 481.008 630.117 481.008 627.749ZM489.839 631.485V621.358H490.797V625.286C491.276 624.369 492.261 623.876 493.397 623.876C495.053 623.876 496.38 624.916 496.38 627.106V631.485H495.436V627.216C495.436 625.56 494.533 624.711 493.164 624.711C491.768 624.711 490.797 625.587 490.797 627.407V631.485H489.839ZM498.061 627.736C498.061 625.395 499.58 623.904 501.633 623.904C503.138 623.904 504.165 624.711 504.589 625.655V624.013H505.547V631.485H504.589V629.829C504.151 630.787 503.111 631.595 501.619 631.595C499.58 631.595 498.061 630.076 498.061 627.736ZM504.589 627.749C504.589 625.888 503.344 624.739 501.811 624.739C500.237 624.739 499.033 625.833 499.033 627.736C499.033 629.624 500.237 630.76 501.811 630.76C503.344 630.76 504.589 629.61 504.589 627.749ZM513.331 631.485V627.216C513.331 625.56 512.428 624.711 511.059 624.711C509.663 624.711 508.692 625.587 508.692 627.407V631.485H507.734V624.013H508.692V625.286C509.171 624.355 510.129 623.876 511.237 623.876C512.934 623.876 514.275 624.916 514.275 627.106V631.485H513.331ZM515.956 627.736C515.956 625.395 517.475 623.904 519.528 623.904C521.006 623.904 522.06 624.697 522.484 625.642V624.013H523.442V631.677C523.442 633.771 522.005 635.153 519.952 635.153C518.023 635.153 516.681 634.168 516.38 632.608H517.325C517.639 633.62 518.584 634.318 519.952 634.318C521.375 634.318 522.484 633.374 522.484 631.677V629.829C522.046 630.787 521.006 631.595 519.528 631.595C517.475 631.595 515.956 630.076 515.956 627.736ZM522.484 627.749C522.484 625.888 521.239 624.739 519.706 624.739C518.132 624.739 516.928 625.833 516.928 627.736C516.928 629.624 518.132 630.76 519.706 630.76C521.239 630.76 522.484 629.61 522.484 627.749ZM528.817 624.725C527.463 624.725 526.272 625.601 526.163 627.339H531.418C531.459 625.601 530.2 624.725 528.817 624.725ZM532.28 629.118C531.938 630.527 530.733 631.595 528.859 631.595C526.737 631.595 525.191 630.117 525.191 627.749C525.191 625.368 526.71 623.904 528.859 623.904C531.048 623.904 532.389 625.464 532.389 627.366C532.389 627.667 532.389 627.859 532.362 628.119H526.163C526.245 629.87 527.463 630.787 528.859 630.787C530.131 630.787 530.993 630.117 531.267 629.118H532.28ZM538.171 629.46V624.821H537.131V624.013H538.171V622.138H539.143V624.013H541.196V624.821H539.143V629.46C539.143 630.377 539.458 630.664 540.32 630.664H541.196V631.485H540.169C538.869 631.485 538.171 630.952 538.171 629.46ZM542.775 631.485V621.358H543.733V625.286C544.212 624.369 545.198 623.876 546.334 623.876C547.989 623.876 549.317 624.916 549.317 627.106V631.485H548.373V627.216C548.373 625.56 547.469 624.711 546.101 624.711C544.705 624.711 543.733 625.587 543.733 627.407V631.485H542.775ZM554.624 624.725C553.269 624.725 552.079 625.601 551.969 627.339H557.224C557.265 625.601 556.006 624.725 554.624 624.725ZM558.087 629.118C557.744 630.527 556.54 631.595 554.665 631.595C552.544 631.595 550.998 630.117 550.998 627.749C550.998 625.368 552.517 623.904 554.665 623.904C556.855 623.904 558.196 625.464 558.196 627.366C558.196 627.667 558.196 627.859 558.169 628.119H551.969C552.051 629.87 553.269 630.787 554.665 630.787C555.938 630.787 556.8 630.117 557.074 629.118H558.087ZM563.266 627.736C563.266 625.395 564.785 623.904 566.838 623.904C568.343 623.904 569.37 624.711 569.794 625.655V624.013H570.752V631.485H569.794V629.829C569.356 630.787 568.316 631.595 566.824 631.595C564.785 631.595 563.266 630.076 563.266 627.736ZM569.794 627.749C569.794 625.888 568.549 624.739 567.016 624.739C565.442 624.739 564.238 625.833 564.238 627.736C564.238 629.624 565.442 630.76 567.016 630.76C568.549 630.76 569.794 629.61 569.794 627.749ZM583.86 631.485V627.216C583.86 625.56 582.998 624.711 581.67 624.711C580.315 624.711 579.357 625.614 579.357 627.435V631.485H578.413V627.216C578.413 625.56 577.537 624.711 576.21 624.711C574.841 624.711 573.897 625.614 573.897 627.435V631.485H572.939V624.013H573.897V625.3C574.376 624.355 575.32 623.876 576.374 623.876C577.619 623.876 578.687 624.465 579.138 625.71C579.549 624.492 580.644 623.876 581.834 623.876C583.49 623.876 584.804 624.916 584.804 627.106V631.485H583.86ZM593.966 627.749C593.966 630.117 592.31 631.595 590.202 631.595C588.095 631.595 586.494 630.117 586.494 627.749C586.494 625.368 588.136 623.904 590.23 623.904C592.337 623.904 593.966 625.368 593.966 627.749ZM587.465 627.749C587.465 629.802 588.779 630.76 590.202 630.76C591.612 630.76 592.98 629.802 592.98 627.749C592.98 625.697 591.639 624.739 590.216 624.739C588.793 624.739 587.465 625.697 587.465 627.749ZM602.185 624.013V631.485H601.227V630.172C600.775 631.116 599.79 631.609 598.682 631.609C596.985 631.609 595.644 630.568 595.644 628.379V624.013H596.588V628.269C596.588 629.925 597.491 630.774 598.86 630.774C600.255 630.774 601.227 629.898 601.227 628.078V624.013H602.185ZM609.969 631.485V627.216C609.969 625.56 609.066 624.711 607.698 624.711C606.302 624.711 605.33 625.587 605.33 627.407V631.485H604.372V624.013H605.33V625.286C605.809 624.355 606.767 623.876 607.876 623.876C609.572 623.876 610.914 624.916 610.914 627.106V631.485H609.969ZM613.306 629.46V624.821H612.266V624.013H613.306V622.138H614.278V624.013H616.33V624.821H614.278V629.46C614.278 630.377 614.592 630.664 615.455 630.664H616.33V631.485H615.304C614.004 631.485 613.306 630.952 613.306 629.46ZM412.64 653.485L410.3 646.013H411.271L413.132 652.514L415.226 646.013H416.184L418.251 652.527L420.098 646.013H421.042L418.702 653.485H417.744L415.678 647.218L413.611 653.485H412.64ZM422.348 653.485V643.358H423.306V647.286C423.785 646.369 424.771 645.876 425.907 645.876C427.562 645.876 428.89 646.916 428.89 649.106V653.485H427.946V649.216C427.946 647.56 427.042 646.711 425.674 646.711C424.278 646.711 423.306 647.587 423.306 649.407V653.485H422.348ZM434.197 646.725C432.842 646.725 431.652 647.601 431.542 649.339H436.797C436.838 647.601 435.579 646.725 434.197 646.725ZM437.66 651.118C437.317 652.527 436.113 653.595 434.238 653.595C432.117 653.595 430.571 652.117 430.571 649.749C430.571 647.368 432.09 645.904 434.238 645.904C436.428 645.904 437.769 647.464 437.769 649.366C437.769 649.667 437.769 649.859 437.742 650.119H431.542C431.624 651.87 432.842 652.787 434.238 652.787C435.511 652.787 436.373 652.117 436.647 651.118H437.66ZM445.119 653.485V649.216C445.119 647.56 444.216 646.711 442.847 646.711C441.451 646.711 440.48 647.587 440.48 649.407V653.485H439.522V646.013H440.48V647.286C440.959 646.355 441.917 645.876 443.025 645.876C444.722 645.876 446.063 646.916 446.063 649.106V653.485H445.119ZM451.371 646.725C450.016 646.725 448.825 647.601 448.716 649.339H453.971C454.012 647.601 452.753 646.725 451.371 646.725ZM454.833 651.118C454.491 652.527 453.286 653.595 451.412 653.595C449.29 653.595 447.744 652.117 447.744 649.749C447.744 647.368 449.263 645.904 451.412 645.904C453.601 645.904 454.942 647.464 454.942 649.366C454.942 649.667 454.942 649.859 454.915 650.119H448.716C448.798 651.87 450.016 652.787 451.412 652.787C452.684 652.787 453.546 652.117 453.82 651.118H454.833ZM455.806 646.013H456.832L459.35 652.555L461.868 646.013H462.881L459.884 653.485H458.803L455.806 646.013ZM467.368 646.725C466.013 646.725 464.822 647.601 464.713 649.339H469.968C470.009 647.601 468.75 646.725 467.368 646.725ZM470.83 651.118C470.488 652.527 469.284 653.595 467.409 653.595C465.288 653.595 463.741 652.117 463.741 649.749C463.741 647.368 465.26 645.904 467.409 645.904C469.598 645.904 470.94 647.464 470.94 649.366C470.94 649.667 470.94 649.859 470.912 650.119H464.713C464.795 651.87 466.013 652.787 467.409 652.787C468.682 652.787 469.544 652.117 469.817 651.118H470.83ZM473.65 649.311V653.485H472.692V646.013H473.65V647.341C474.061 646.424 474.923 645.876 476.209 645.876V646.875H475.949C474.704 646.875 473.65 647.436 473.65 649.311ZM484.116 652.391L486.579 646.013H487.564L483.13 657.002H482.131L483.582 653.444L480.516 646.013H481.57L484.116 652.391ZM495.897 649.749C495.897 652.117 494.242 653.595 492.134 653.595C490.026 653.595 488.425 652.117 488.425 649.749C488.425 647.368 490.068 645.904 492.161 645.904C494.269 645.904 495.897 647.368 495.897 649.749ZM489.397 649.749C489.397 651.802 490.711 652.76 492.134 652.76C493.544 652.76 494.912 651.802 494.912 649.749C494.912 647.697 493.571 646.739 492.148 646.739C490.724 646.739 489.397 647.697 489.397 649.749ZM504.117 646.013V653.485H503.159V652.172C502.707 653.116 501.722 653.609 500.613 653.609C498.916 653.609 497.575 652.568 497.575 650.379V646.013H498.52V650.269C498.52 651.925 499.423 652.774 500.791 652.774C502.187 652.774 503.159 651.898 503.159 650.078V646.013H504.117ZM510.059 653.485V643.358H511.017V653.485H510.059ZM513.187 653.485V646.013H514.145V653.485H513.187ZM513.666 644.604C513.282 644.604 512.968 644.303 512.968 643.892C512.968 643.481 513.282 643.194 513.666 643.194C514.049 643.194 514.363 643.481 514.363 643.892C514.363 644.303 514.049 644.604 513.666 644.604ZM516.314 653.485V643.358H517.272V649.352L520.283 646.013H521.624L518.079 649.736L521.651 653.485H520.351L517.272 650.132V653.485H516.314ZM526.078 646.725C524.723 646.725 523.532 647.601 523.423 649.339H528.678C528.719 647.601 527.46 646.725 526.078 646.725ZM529.54 651.118C529.198 652.527 527.994 653.595 526.119 653.595C523.998 653.595 522.451 652.117 522.451 649.749C522.451 647.368 523.97 645.904 526.119 645.904C528.308 645.904 529.65 647.464 529.65 649.366C529.65 649.667 529.65 649.859 529.622 650.119H523.423C523.505 651.87 524.723 652.787 526.119 652.787C527.392 652.787 528.254 652.117 528.527 651.118H529.54ZM532.251 652.842C532.251 653.239 531.95 653.554 531.567 653.554C531.17 653.554 530.869 653.239 530.869 652.842C530.869 652.445 531.17 652.144 531.567 652.144C531.95 652.144 532.251 652.445 532.251 652.842ZM539.943 649.763L536.85 643.919H537.931L540.422 648.887L542.899 643.919H543.966L540.901 649.763V653.485H539.943V649.763ZM552.402 649.749C552.402 652.117 550.746 653.595 548.639 653.595C546.531 653.595 544.93 652.117 544.93 649.749C544.93 647.368 546.572 645.904 548.666 645.904C550.774 645.904 552.402 647.368 552.402 649.749ZM545.902 649.749C545.902 651.802 547.216 652.76 548.639 652.76C550.048 652.76 551.417 651.802 551.417 649.749C551.417 647.697 550.076 646.739 548.653 646.739C547.229 646.739 545.902 647.697 545.902 649.749ZM560.622 646.013V653.485H559.664V652.172C559.212 653.116 558.227 653.609 557.118 653.609C555.421 653.609 554.08 652.568 554.08 650.379V646.013H555.024V650.269C555.024 651.925 555.928 652.774 557.296 652.774C558.692 652.774 559.664 651.898 559.664 650.078V646.013H560.622ZM566.126 649.736C566.126 647.395 567.645 645.904 569.712 645.904C571.053 645.904 572.175 646.643 572.654 647.628V643.358H573.612V653.485H572.654V651.816C572.216 652.801 571.176 653.595 569.698 653.595C567.645 653.595 566.126 652.076 566.126 649.736ZM572.654 649.749C572.654 647.888 571.409 646.739 569.876 646.739C568.302 646.739 567.098 647.833 567.098 649.736C567.098 651.624 568.302 652.76 569.876 652.76C571.409 652.76 572.654 651.61 572.654 649.749ZM578.988 646.725C577.633 646.725 576.442 647.601 576.333 649.339H581.588C581.629 647.601 580.37 646.725 578.988 646.725ZM582.45 651.118C582.108 652.527 580.904 653.595 579.029 653.595C576.907 653.595 575.361 652.117 575.361 649.749C575.361 647.368 576.88 645.904 579.029 645.904C581.218 645.904 582.559 647.464 582.559 649.366C582.559 649.667 582.559 649.859 582.532 650.119H576.333C576.415 651.87 577.633 652.787 579.029 652.787C580.301 652.787 581.164 652.117 581.437 651.118H582.45ZM583.874 649.749C583.874 647.382 585.393 645.904 587.501 645.904C589.376 645.904 590.594 646.903 590.936 648.449H589.909C589.663 647.382 588.76 646.725 587.501 646.725C586.036 646.725 584.846 647.724 584.846 649.749C584.846 651.775 586.036 652.787 587.501 652.787C588.76 652.787 589.649 652.144 589.909 651.049H590.936C590.594 652.541 589.376 653.595 587.501 653.595C585.393 653.595 583.874 652.117 583.874 649.749ZM592.705 653.485V646.013H593.663V653.485H592.705ZM593.184 644.604C592.801 644.604 592.486 644.303 592.486 643.892C592.486 643.481 592.801 643.194 593.184 643.194C593.567 643.194 593.882 643.481 593.882 643.892C593.882 644.303 593.567 644.604 593.184 644.604ZM595.394 649.736C595.394 647.395 596.913 645.904 598.98 645.904C600.321 645.904 601.443 646.643 601.922 647.628V643.358H602.88V653.485H601.922V651.816C601.484 652.801 600.444 653.595 598.966 653.595C596.913 653.595 595.394 652.076 595.394 649.736ZM601.922 649.749C601.922 647.888 600.677 646.739 599.144 646.739C597.57 646.739 596.366 647.833 596.366 649.736C596.366 651.624 597.57 652.76 599.144 652.76C600.677 652.76 601.922 651.61 601.922 649.749ZM608.256 646.725C606.901 646.725 605.71 647.601 605.601 649.339H610.856C610.897 647.601 609.638 646.725 608.256 646.725ZM611.718 651.118C611.376 652.527 610.172 653.595 608.297 653.595C606.176 653.595 604.629 652.117 604.629 649.749C604.629 647.368 606.148 645.904 608.297 645.904C610.486 645.904 611.828 647.464 611.828 649.366C611.828 649.667 611.828 649.859 611.8 650.119H605.601C605.683 651.87 606.901 652.787 608.297 652.787C609.57 652.787 610.432 652.117 610.705 651.118H611.718ZM614.429 652.842C614.429 653.239 614.128 653.554 613.744 653.554C613.348 653.554 613.047 653.239 613.047 652.842C613.047 652.445 613.348 652.144 613.744 652.144C614.128 652.144 614.429 652.445 614.429 652.842Z" fill="#9B9B9B"/>
</g>
<path d="M499.408 475.444C515.022 475.445 527.679 488.013 527.679 503.517C527.679 519.02 515.022 531.588 499.408 531.588C483.795 531.588 471.137 519.02 471.137 503.517C471.137 488.013 483.795 475.444 499.408 475.444ZM499.408 481.43C487.131 481.43 477.179 491.318 477.179 503.517C477.179 515.715 487.131 525.604 499.408 525.604C511.685 525.604 521.638 515.715 521.638 503.517C521.638 491.318 511.685 481.43 499.408 481.43Z" fill="#0077C8"/>
<path fill-rule="evenodd" clip-rule="evenodd" d="M496.888 505.964V513.242H492.227V493.969H500.187C501.713 493.969 503.003 494.233 504.058 494.76C505.112 495.287 505.902 496.009 506.429 496.927C506.956 497.845 507.22 498.894 507.22 500.076C507.22 501.475 506.834 502.665 506.061 503.647C505.289 504.628 504.167 505.3 502.695 505.664L507.274 513.242H502.122L497.951 505.964H496.888ZM496.888 502.774H499.777C500.704 502.774 501.386 502.57 501.822 502.161C502.258 501.752 502.476 501.148 502.476 500.348C502.476 499.585 502.253 498.985 501.808 498.549C501.363 498.113 500.686 497.895 499.777 497.895H496.888V502.774Z" fill="#BBBBBB"/>
<path d="M549.938 481.287C549.938 467.514 538.71 456.35 524.859 456.35C511.008 456.35 499.779 467.514 499.779 481.287C499.779 495.059 511.008 506.224 524.859 506.224C538.71 506.224 549.938 495.059 549.938 481.287Z" fill="white"/>
<path fill-rule="evenodd" clip-rule="evenodd" d="M521.968 483.734V491.012H517.307V471.739H525.267C526.793 471.739 528.084 472.003 529.138 472.53C530.192 473.057 530.982 473.779 531.509 474.697C532.036 475.615 532.3 476.664 532.3 477.846C532.3 479.245 531.914 480.435 531.141 481.417C530.369 482.398 529.247 483.07 527.775 483.434L532.354 491.012H527.202L523.031 483.734H521.968ZM521.968 480.544H524.857C525.784 480.544 526.466 480.34 526.902 479.931C527.338 479.522 527.556 478.918 527.556 478.118C527.556 477.355 527.333 476.755 526.888 476.319C526.443 475.883 525.766 475.665 524.857 475.665H521.968V480.544Z" fill="#BBBBBB"/>
<path d="M524.773 453.215C540.387 453.215 553.044 465.784 553.044 481.287C553.044 496.79 540.387 509.358 524.773 509.358C509.16 509.358 496.502 496.791 496.502 481.287C496.502 465.783 509.16 453.215 524.773 453.215ZM524.773 459.2C512.496 459.2 502.544 469.089 502.544 481.287C502.544 493.485 512.497 503.374 524.773 503.374C537.05 503.374 547.003 493.485 547.003 481.287C547.003 469.089 537.05 459.2 524.773 459.2Z" fill="#0077C8"/>
<g filter="url(#filter2_d_464_5931)">
<rect x="672.992" y="406" width="287.389" height="312.707" rx="8.21111" fill="white"/>
</g>
<path d="M768.633 561.571V566.629C769.31 565.505 770.389 564.943 771.871 564.943C773.097 564.943 774.087 565.352 774.841 566.169C775.607 566.987 775.99 568.098 775.99 569.503V575.749H772.733V569.944C772.733 569.254 772.548 568.724 772.178 568.354C771.82 567.97 771.322 567.779 770.683 567.779C770.044 567.779 769.54 567.97 769.17 568.354C768.812 568.724 768.633 569.254 768.633 569.944V575.749H765.357V561.571H768.633ZM785.19 572.396C785.625 571.936 785.842 571.272 785.842 570.404C785.842 569.535 785.618 568.877 785.171 568.43C784.724 567.97 784.194 567.74 783.581 567.74C782.968 567.74 782.438 567.97 781.991 568.43C781.557 568.877 781.339 569.535 781.339 570.404C781.339 571.272 781.563 571.936 782.01 572.396C782.47 572.856 783.006 573.086 783.619 573.086C784.232 573.086 784.756 572.856 785.19 572.396ZM779.615 574.37C778.542 573.361 778.006 572.032 778.006 570.384C778.006 568.737 778.542 567.421 779.615 566.438C780.688 565.441 782.016 564.943 783.6 564.943C785.184 564.943 786.506 565.441 787.566 566.438C788.639 567.421 789.176 568.737 789.176 570.384C789.176 572.032 788.645 573.361 787.585 574.37C786.525 575.379 785.203 575.883 783.619 575.883C782.036 575.883 780.701 575.379 779.615 574.37ZM803.302 565.058H806.387L803.187 575.749H799.662L798.167 569.426L796.654 575.749H793.128L789.929 565.058H793.205L794.872 572.569L796.52 565.058H799.988L801.635 572.569L803.302 565.058ZM813.629 575.749V561.571H816.905V575.749H813.629ZM826.203 572.396C826.637 571.936 826.855 571.272 826.855 570.404C826.855 569.535 826.631 568.877 826.184 568.43C825.737 567.97 825.207 567.74 824.594 567.74C823.981 567.74 823.451 567.97 823.004 568.43C822.569 568.877 822.352 569.535 822.352 570.404C822.352 571.272 822.576 571.936 823.023 572.396C823.483 572.856 824.019 573.086 824.632 573.086C825.245 573.086 825.769 572.856 826.203 572.396ZM820.628 574.37C819.555 573.361 819.018 572.032 819.018 570.384C819.018 568.737 819.555 567.421 820.628 566.438C821.701 565.441 823.029 564.943 824.613 564.943C826.197 564.943 827.519 565.441 828.579 566.438C829.652 567.421 830.188 568.737 830.188 570.384C830.188 572.032 829.658 573.361 828.598 574.37C827.538 575.379 826.216 575.883 824.632 575.883C823.048 575.883 821.714 575.379 820.628 574.37ZM835.578 565.058V566.629C836.255 565.505 837.334 564.943 838.816 564.943C840.042 564.943 841.032 565.352 841.786 566.169C842.552 566.987 842.935 568.098 842.935 569.503V575.749H839.678V569.944C839.678 569.254 839.493 568.724 839.123 568.354C838.765 567.97 838.267 567.779 837.628 567.779C836.99 567.779 836.485 567.97 836.115 568.354C835.757 568.724 835.578 569.254 835.578 569.944V575.749H832.302V565.058H835.578ZM846.349 574.35C845.404 573.329 844.932 572.019 844.932 570.423C844.932 568.826 845.404 567.517 846.349 566.495C847.295 565.46 848.444 564.943 849.798 564.943C851.165 564.943 852.212 565.448 852.94 566.457V565.058H856.216V575.692C856.216 577.186 855.808 578.431 854.99 579.428C854.582 579.939 854.02 580.334 853.304 580.615C852.602 580.896 851.784 581.037 850.852 581.037C849.217 581.037 847.921 580.705 846.963 580.041C846.005 579.377 845.462 578.361 845.334 576.994H848.553C848.859 577.799 849.626 578.201 850.852 578.201C851.452 578.201 851.95 577.997 852.346 577.588C852.742 577.192 852.94 576.56 852.94 575.692V574.197C852.148 575.321 851.088 575.883 849.76 575.883C848.431 575.883 847.295 575.372 846.349 574.35ZM852.231 572.358C852.704 571.898 852.94 571.247 852.94 570.404C852.94 569.561 852.704 568.916 852.231 568.469C851.759 568.009 851.216 567.779 850.603 567.779C849.99 567.779 849.447 568.009 848.974 568.469C848.502 568.928 848.265 569.58 848.265 570.423C848.265 571.266 848.502 571.917 848.974 572.377C849.447 572.824 849.99 573.048 850.603 573.048C851.216 573.048 851.759 572.818 852.231 572.358ZM862.697 575.749C862.199 575.749 861.777 575.577 861.432 575.232C861.088 574.887 860.915 574.465 860.915 573.967C860.915 573.456 861.088 573.028 861.432 572.684C861.777 572.339 862.199 572.166 862.697 572.166C863.208 572.166 863.636 572.339 863.981 572.684C864.326 573.028 864.498 573.456 864.498 573.967C864.498 574.465 864.326 574.887 863.981 575.232C863.636 575.577 863.208 575.749 862.697 575.749ZM859.382 565.307C859.357 564.119 859.74 563.136 860.532 562.357C861.324 561.565 862.416 561.169 863.808 561.169C865.2 561.169 866.324 561.539 867.18 562.28C868.036 563.021 868.464 564.049 868.464 565.365C868.464 566.668 868.093 567.613 867.353 568.2C866.625 568.775 865.564 569.075 864.172 569.101V570.921H861.088V566.974H862.371C863.368 566.974 864.102 566.859 864.575 566.629C865.047 566.399 865.283 565.959 865.283 565.307C865.283 564.873 865.156 564.522 864.9 564.253C864.658 563.985 864.313 563.851 863.866 563.851C863.431 563.851 863.087 563.985 862.831 564.253C862.588 564.509 862.467 564.86 862.467 565.307H859.382Z" fill="#0077C8"/>
<g clip-path="url(#clip2_464_5931)">
<path d="M717.427 609.499L714.772 599.919H715.799L717.988 608.308L720.438 599.919H721.506L723.887 608.308L726.09 599.919H727.117L724.407 609.485H723.339L720.931 601.329L718.467 609.485L717.427 609.499ZM731.771 602.725C730.416 602.725 729.225 603.601 729.116 605.339H734.371C734.412 603.601 733.153 602.725 731.771 602.725ZM735.233 607.118C734.891 608.527 733.686 609.595 731.812 609.595C729.69 609.595 728.144 608.117 728.144 605.749C728.144 603.368 729.663 601.904 731.812 601.904C734.001 601.904 735.342 603.464 735.342 605.366C735.342 605.667 735.342 605.859 735.315 606.119H729.116C729.198 607.87 730.416 608.787 731.812 608.787C733.084 608.787 733.946 608.117 734.22 607.118H735.233ZM741.795 603.669C742.26 602.684 743.3 601.904 744.764 601.904C746.817 601.904 748.323 603.395 748.323 605.736C748.323 608.076 746.804 609.595 744.764 609.595C743.273 609.595 742.246 608.815 741.795 607.843V609.485H740.85V599.358H741.795V603.669ZM747.351 605.736C747.351 603.833 746.147 602.739 744.573 602.739C743.054 602.739 741.795 603.888 741.795 605.749C741.795 607.61 743.054 608.76 744.573 608.76C746.147 608.76 747.351 607.624 747.351 605.736ZM750.085 609.485V602.013H751.043V609.485H750.085ZM750.564 600.604C750.181 600.604 749.866 600.303 749.866 599.892C749.866 599.481 750.181 599.194 750.564 599.194C750.947 599.194 751.262 599.481 751.262 599.892C751.262 600.303 750.947 600.604 750.564 600.604ZM753.213 609.485V599.358H754.171V609.485H753.213ZM756.34 609.485V599.358H757.298V609.485H756.34ZM770.257 605.749C770.257 608.117 768.601 609.595 766.493 609.595C764.386 609.595 762.785 608.117 762.785 605.749C762.785 603.368 764.427 601.904 766.521 601.904C768.628 601.904 770.257 603.368 770.257 605.749ZM763.756 605.749C763.756 607.802 765.07 608.76 766.493 608.76C767.903 608.76 769.271 607.802 769.271 605.749C769.271 603.697 767.93 602.739 766.507 602.739C765.084 602.739 763.756 603.697 763.756 605.749ZM777.6 609.485V605.216C777.6 603.56 776.697 602.711 775.328 602.711C773.933 602.711 772.961 603.587 772.961 605.407V609.485H772.003V602.013H772.961V603.286C773.44 602.355 774.398 601.876 775.506 601.876C777.203 601.876 778.544 602.916 778.544 605.106V609.485H777.6ZM780.225 605.749C780.225 603.382 781.744 601.904 783.852 601.904C785.727 601.904 786.945 602.903 787.287 604.449H786.26C786.014 603.382 785.111 602.725 783.852 602.725C782.387 602.725 781.197 603.724 781.197 605.749C781.197 607.775 782.387 608.787 783.852 608.787C785.111 608.787 786 608.144 786.26 607.049H787.287C786.945 608.541 785.727 609.595 783.852 609.595C781.744 609.595 780.225 608.117 780.225 605.749ZM792.245 602.725C790.89 602.725 789.699 603.601 789.59 605.339H794.845C794.886 603.601 793.627 602.725 792.245 602.725ZM795.707 607.118C795.365 608.527 794.161 609.595 792.286 609.595C790.165 609.595 788.618 608.117 788.618 605.749C788.618 603.368 790.137 601.904 792.286 601.904C794.475 601.904 795.816 603.464 795.816 605.366C795.816 605.667 795.816 605.859 795.789 606.119H789.59C789.672 607.87 790.89 608.787 792.286 608.787C793.558 608.787 794.421 608.117 794.694 607.118H795.707ZM800.887 605.736C800.887 603.395 802.406 601.904 804.458 601.904C805.964 601.904 806.99 602.711 807.414 603.655V602.013H808.372V609.485H807.414V607.829C806.977 608.787 805.936 609.595 804.445 609.595C802.406 609.595 800.887 608.076 800.887 605.736ZM807.414 605.749C807.414 603.888 806.169 602.739 804.636 602.739C803.063 602.739 801.858 603.833 801.858 605.736C801.858 607.624 803.063 608.76 804.636 608.76C806.169 608.76 807.414 607.61 807.414 605.749ZM825.236 609.485V605.216C825.236 603.56 824.373 602.711 823.046 602.711C821.691 602.711 820.733 603.614 820.733 605.435V609.485H819.789V605.216C819.789 603.56 818.913 602.711 817.586 602.711C816.217 602.711 815.273 603.614 815.273 605.435V609.485H814.315V602.013H815.273V603.3C815.752 602.355 816.696 601.876 817.75 601.876C818.995 601.876 820.063 602.465 820.514 603.71C820.925 602.492 822.02 601.876 823.21 601.876C824.866 601.876 826.18 602.916 826.18 605.106V609.485H825.236ZM835.342 605.749C835.342 608.117 833.686 609.595 831.578 609.595C829.471 609.595 827.869 608.117 827.869 605.749C827.869 603.368 829.512 601.904 831.605 601.904C833.713 601.904 835.342 603.368 835.342 605.749ZM828.841 605.749C828.841 607.802 830.155 608.76 831.578 608.76C832.988 608.76 834.356 607.802 834.356 605.749C834.356 603.697 833.015 602.739 831.592 602.739C830.169 602.739 828.841 603.697 828.841 605.749ZM842.685 609.485V605.216C842.685 603.56 841.782 602.711 840.413 602.711C839.017 602.711 838.046 603.587 838.046 605.407V609.485H837.088V602.013H838.046V603.286C838.525 602.355 839.483 601.876 840.591 601.876C842.288 601.876 843.629 602.916 843.629 605.106V609.485H842.685ZM846.022 607.46V602.821H844.982V602.013H846.022V600.138H846.993V602.013H849.046V602.821H846.993V607.46C846.993 608.377 847.308 608.664 848.17 608.664H849.046V609.485H848.02C846.72 609.485 846.022 608.952 846.022 607.46ZM850.626 609.485V599.358H851.584V603.286C852.063 602.369 853.048 601.876 854.184 601.876C855.84 601.876 857.167 602.916 857.167 605.106V609.485H856.223V605.216C856.223 603.56 855.32 602.711 853.951 602.711C852.556 602.711 851.584 603.587 851.584 605.407V609.485H850.626ZM860.135 608.842C860.135 609.239 859.834 609.554 859.45 609.554C859.053 609.554 858.752 609.239 858.752 608.842C858.752 608.445 859.053 608.144 859.45 608.144C859.834 608.144 860.135 608.445 860.135 608.842ZM867.826 605.763L864.734 599.919H865.815L868.305 604.887L870.782 599.919H871.85L868.784 605.763V609.485H867.826V605.763ZM880.286 605.749C880.286 608.117 878.63 609.595 876.523 609.595C874.415 609.595 872.814 608.117 872.814 605.749C872.814 603.368 874.456 601.904 876.55 601.904C878.658 601.904 880.286 603.368 880.286 605.749ZM873.786 605.749C873.786 607.802 875.099 608.76 876.523 608.76C877.932 608.76 879.301 607.802 879.301 605.749C879.301 603.697 877.96 602.739 876.536 602.739C875.113 602.739 873.786 603.697 873.786 605.749ZM888.506 602.013V609.485H887.548V608.172C887.096 609.116 886.111 609.609 885.002 609.609C883.305 609.609 881.964 608.568 881.964 606.379V602.013H882.908V606.269C882.908 607.925 883.812 608.774 885.18 608.774C886.576 608.774 887.548 607.898 887.548 606.078V602.013H888.506ZM894.01 605.749C894.01 603.382 895.529 601.904 897.637 601.904C899.512 601.904 900.729 602.903 901.072 604.449H900.045C899.799 603.382 898.896 602.725 897.637 602.725C896.172 602.725 894.982 603.724 894.982 605.749C894.982 607.775 896.172 608.787 897.637 608.787C898.896 608.787 899.785 608.144 900.045 607.049H901.072C900.729 608.541 899.512 609.595 897.637 609.595C895.529 609.595 894.01 608.117 894.01 605.749ZM902.403 605.736C902.403 603.395 903.922 601.904 905.975 601.904C907.48 601.904 908.507 602.711 908.931 603.655V602.013H909.889V609.485H908.931V607.829C908.493 608.787 907.453 609.595 905.961 609.595C903.922 609.595 902.403 608.076 902.403 605.736ZM908.931 605.749C908.931 603.888 907.685 602.739 906.153 602.739C904.579 602.739 903.375 603.833 903.375 605.736C903.375 607.624 904.579 608.76 906.153 608.76C907.685 608.76 908.931 607.61 908.931 605.749ZM917.673 609.485V605.216C917.673 603.56 916.77 602.711 915.401 602.711C914.005 602.711 913.034 603.587 913.034 605.407V609.485H912.076V602.013H913.034V603.286C913.513 602.355 914.471 601.876 915.579 601.876C917.276 601.876 918.617 602.916 918.617 605.106V609.485H917.673ZM707.509 627.749C707.509 625.382 709.028 623.904 711.136 623.904C713.011 623.904 714.229 624.903 714.571 626.449H713.544C713.298 625.382 712.395 624.725 711.136 624.725C709.672 624.725 708.481 625.724 708.481 627.749C708.481 629.775 709.672 630.787 711.136 630.787C712.395 630.787 713.284 630.144 713.544 629.049H714.571C714.229 630.541 713.011 631.595 711.136 631.595C709.028 631.595 707.509 630.117 707.509 627.749ZM716.34 631.485V621.358H717.298V625.286C717.777 624.369 718.762 623.876 719.898 623.876C721.554 623.876 722.882 624.916 722.882 627.106V631.485H721.937V627.216C721.937 625.56 721.034 624.711 719.666 624.711C718.27 624.711 717.298 625.587 717.298 627.407V631.485H716.34ZM725 631.485V624.013H725.958V631.485H725ZM725.479 622.604C725.096 622.604 724.781 622.303 724.781 621.892C724.781 621.481 725.096 621.194 725.479 621.194C725.862 621.194 726.177 621.481 726.177 621.892C726.177 622.303 725.862 622.604 725.479 622.604ZM729.072 625.655C729.51 624.711 730.55 623.904 732.041 623.904C734.081 623.904 735.6 625.395 735.6 627.736C735.6 630.076 734.081 631.595 732.041 631.595C730.55 631.595 729.51 630.774 729.072 629.843V635.016H728.128V624.013H729.072V625.655ZM734.628 627.736C734.628 625.833 733.424 624.739 731.85 624.739C730.331 624.739 729.072 625.888 729.072 627.749C729.072 629.61 730.331 630.76 731.85 630.76C733.424 630.76 734.628 629.624 734.628 627.736ZM741.118 631.485V624.013H742.076V631.485H741.118ZM741.597 622.604C741.214 622.604 740.899 622.303 740.899 621.892C740.899 621.481 741.214 621.194 741.597 621.194C741.98 621.194 742.295 621.481 742.295 621.892C742.295 622.303 741.98 622.604 741.597 622.604ZM749.842 631.485V627.216C749.842 625.56 748.939 624.711 747.571 624.711C746.175 624.711 745.203 625.587 745.203 627.407V631.485H744.245V624.013H745.203V625.286C745.682 624.355 746.64 623.876 747.748 623.876C749.445 623.876 750.787 624.916 750.787 627.106V631.485H749.842ZM756.907 631.485V624.821H755.867V624.013H756.907V623.493C756.907 621.892 757.66 621.126 759.548 621.126V621.947C758.275 621.947 757.865 622.412 757.865 623.493V624.013H759.603V624.821H757.865V631.485H756.907ZM768.145 627.749C768.145 630.117 766.489 631.595 764.382 631.595C762.274 631.595 760.673 630.117 760.673 627.749C760.673 625.368 762.315 623.904 764.409 623.904C766.517 623.904 768.145 625.368 768.145 627.749ZM761.645 627.749C761.645 629.802 762.958 630.76 764.382 630.76C765.791 630.76 767.16 629.802 767.16 627.749C767.16 625.697 765.819 624.739 764.395 624.739C762.972 624.739 761.645 625.697 761.645 627.749ZM770.849 627.311V631.485H769.891V624.013H770.849V625.341C771.26 624.424 772.122 623.876 773.408 623.876V624.875H773.148C771.903 624.875 770.849 625.436 770.849 627.311ZM785.639 627.749C785.639 630.117 783.983 631.595 781.876 631.595C779.768 631.595 778.167 630.117 778.167 627.749C778.167 625.368 779.809 623.904 781.903 623.904C784.011 623.904 785.639 625.368 785.639 627.749ZM779.139 627.749C779.139 629.802 780.453 630.76 781.876 630.76C783.285 630.76 784.654 629.802 784.654 627.749C784.654 625.697 783.313 624.739 781.889 624.739C780.466 624.739 779.139 625.697 779.139 627.749ZM792.983 631.485V627.216C792.983 625.56 792.079 624.711 790.711 624.711C789.315 624.711 788.343 625.587 788.343 627.407V631.485H787.385V624.013H788.343V625.286C788.822 624.355 789.78 623.876 790.889 623.876C792.586 623.876 793.927 624.916 793.927 627.106V631.485H792.983ZM799.234 624.725C797.879 624.725 796.689 625.601 796.579 627.339H801.834C801.875 625.601 800.616 624.725 799.234 624.725ZM802.697 629.118C802.354 630.527 801.15 631.595 799.275 631.595C797.154 631.595 795.608 630.117 795.608 627.749C795.608 625.368 797.127 623.904 799.275 623.904C801.465 623.904 802.806 625.464 802.806 627.366C802.806 627.667 802.806 627.859 802.779 628.119H796.579C796.661 629.87 797.879 630.787 799.275 630.787C800.548 630.787 801.41 630.117 801.684 629.118H802.697ZM809.258 625.669C809.724 624.684 810.764 623.904 812.228 623.904C814.281 623.904 815.786 625.395 815.786 627.736C815.786 630.076 814.267 631.595 812.228 631.595C810.736 631.595 809.71 630.815 809.258 629.843V631.485H808.314V621.358H809.258V625.669ZM814.815 627.736C814.815 625.833 813.61 624.739 812.037 624.739C810.517 624.739 809.258 625.888 809.258 627.749C809.258 629.61 810.517 630.76 812.037 630.76C813.61 630.76 814.815 629.624 814.815 627.736ZM817.549 631.485V624.013H818.507V631.485H817.549ZM818.028 622.604C817.645 622.604 817.33 622.303 817.33 621.892C817.33 621.481 817.645 621.194 818.028 621.194C818.411 621.194 818.726 621.481 818.726 621.892C818.726 622.303 818.411 622.604 818.028 622.604ZM820.676 631.485V621.358H821.634V631.485H820.676ZM823.804 631.485V621.358H824.762V631.485H823.804ZM827.779 630.842C827.779 631.239 827.478 631.554 827.095 631.554C826.698 631.554 826.397 631.239 826.397 630.842C826.397 630.445 826.698 630.144 827.095 630.144C827.478 630.144 827.779 630.445 827.779 630.842ZM842.204 626.696C842.204 629.569 840.165 631.581 837.469 631.581C834.787 631.581 832.734 629.569 832.734 626.696C832.734 623.835 834.787 621.81 837.469 621.81C840.165 621.81 842.204 623.835 842.204 626.696ZM833.719 626.696C833.719 629.2 835.348 630.746 837.469 630.746C839.59 630.746 841.219 629.2 841.219 626.696C841.219 624.191 839.59 622.658 837.469 622.658C835.348 622.658 833.719 624.191 833.719 626.696ZM844.915 627.311V631.485H843.957V624.013H844.915V625.341C845.326 624.424 846.188 623.876 847.474 623.876V624.875H847.214C845.969 624.875 844.915 625.436 844.915 627.311ZM852.671 631.485V621.358H853.629V627.352L856.639 624.013H857.981L854.436 627.736L858.008 631.485H856.708L853.629 628.132V631.485H852.671ZM862.435 624.725C861.08 624.725 859.889 625.601 859.78 627.339H865.035C865.076 625.601 863.817 624.725 862.435 624.725ZM865.897 629.118C865.555 630.527 864.351 631.595 862.476 631.595C860.355 631.595 858.808 630.117 858.808 627.749C858.808 625.368 860.327 623.904 862.476 623.904C864.665 623.904 866.007 625.464 866.007 627.366C866.007 627.667 866.007 627.859 865.979 628.119H859.78C859.862 629.87 861.08 630.787 862.476 630.787C863.748 630.787 864.611 630.117 864.884 629.118H865.897ZM870.948 624.725C869.593 624.725 868.402 625.601 868.293 627.339H873.548C873.589 625.601 872.33 624.725 870.948 624.725ZM874.41 629.118C874.068 630.527 872.864 631.595 870.989 631.595C868.868 631.595 867.321 630.117 867.321 627.749C867.321 625.368 868.84 623.904 870.989 623.904C873.179 623.904 874.52 625.464 874.52 627.366C874.52 627.667 874.52 627.859 874.492 628.119H868.293C868.375 629.87 869.593 630.787 870.989 630.787C872.262 630.787 873.124 630.117 873.398 629.118H874.41ZM877.217 625.655C877.655 624.711 878.695 623.904 880.186 623.904C882.225 623.904 883.744 625.395 883.744 627.736C883.744 630.076 882.225 631.595 880.186 631.595C878.695 631.595 877.655 630.774 877.217 629.843V635.016H876.272V624.013H877.217V625.655ZM882.773 627.736C882.773 625.833 881.569 624.739 879.995 624.739C878.476 624.739 877.217 625.888 877.217 627.749C877.217 629.61 878.476 630.76 879.995 630.76C881.569 630.76 882.773 629.624 882.773 627.736ZM888.825 627.736C888.825 625.395 890.344 623.904 892.397 623.904C893.875 623.904 894.928 624.697 895.353 625.642V624.013H896.31V631.677C896.31 633.771 894.874 635.153 892.821 635.153C890.891 635.153 889.55 634.168 889.249 632.608H890.193C890.508 633.62 891.452 634.318 892.821 634.318C894.244 634.318 895.353 633.374 895.353 631.677V629.829C894.915 630.787 893.875 631.595 892.397 631.595C890.344 631.595 888.825 630.076 888.825 627.736ZM895.353 627.749C895.353 625.888 894.107 624.739 892.574 624.739C891.001 624.739 889.796 625.833 889.796 627.736C889.796 629.624 891.001 630.76 892.574 630.76C894.107 630.76 895.353 629.61 895.353 627.749ZM905.532 627.749C905.532 630.117 903.876 631.595 901.768 631.595C899.661 631.595 898.059 630.117 898.059 627.749C898.059 625.368 899.702 623.904 901.796 623.904C903.903 623.904 905.532 625.368 905.532 627.749ZM899.031 627.749C899.031 629.802 900.345 630.76 901.768 630.76C903.178 630.76 904.546 629.802 904.546 627.749C904.546 625.697 903.205 624.739 901.782 624.739C900.359 624.739 899.031 625.697 899.031 627.749ZM907.278 631.485V624.013H908.236V631.485H907.278ZM907.757 622.604C907.374 622.604 907.059 622.303 907.059 621.892C907.059 621.481 907.374 621.194 907.757 621.194C908.14 621.194 908.455 621.481 908.455 621.892C908.455 622.303 908.14 622.604 907.757 622.604ZM916.002 631.485V627.216C916.002 625.56 915.099 624.711 913.731 624.711C912.335 624.711 911.363 625.587 911.363 627.407V631.485H910.405V624.013H911.363V625.286C911.842 624.355 912.8 623.876 913.909 623.876C915.606 623.876 916.947 624.916 916.947 627.106V631.485H916.002ZM918.627 627.736C918.627 625.395 920.146 623.904 922.199 623.904C923.677 623.904 924.731 624.697 925.155 625.642V624.013H926.113V631.677C926.113 633.771 924.676 635.153 922.623 635.153C920.694 635.153 919.353 634.168 919.052 632.608H919.996C920.311 633.62 921.255 634.318 922.623 634.318C924.047 634.318 925.155 633.374 925.155 631.677V629.829C924.717 630.787 923.677 631.595 922.199 631.595C920.146 631.595 918.627 630.076 918.627 627.736ZM925.155 627.749C925.155 625.888 923.91 624.739 922.377 624.739C920.803 624.739 919.599 625.833 919.599 627.736C919.599 629.624 920.803 630.76 922.377 630.76C923.91 630.76 925.155 629.61 925.155 627.749ZM744.411 653.485V646.821H743.371V646.013H744.411V645.493C744.411 643.892 745.164 643.126 747.052 643.126V643.947C745.78 643.947 745.369 644.412 745.369 645.493V646.013H747.107V646.821H745.369V653.485H744.411ZM755.649 649.749C755.649 652.117 753.993 653.595 751.886 653.595C749.778 653.595 748.177 652.117 748.177 649.749C748.177 647.368 749.82 645.904 751.913 645.904C754.021 645.904 755.649 647.368 755.649 649.749ZM749.149 649.749C749.149 651.802 750.463 652.76 751.886 652.76C753.296 652.76 754.664 651.802 754.664 649.749C754.664 647.697 753.323 646.739 751.9 646.739C750.476 646.739 749.149 647.697 749.149 649.749ZM758.354 649.311V653.485H757.396V646.013H758.354V647.341C758.764 646.424 759.626 645.876 760.913 645.876V646.875H760.653C759.407 646.875 758.354 647.436 758.354 649.311ZM765.671 649.736C765.671 647.395 767.19 645.904 769.243 645.904C770.749 645.904 771.775 646.711 772.199 647.655V646.013H773.157V653.485H772.199V651.829C771.761 652.787 770.721 653.595 769.229 653.595C767.19 653.595 765.671 652.076 765.671 649.736ZM772.199 649.749C772.199 647.888 770.954 646.739 769.421 646.739C767.847 646.739 766.643 647.833 766.643 649.736C766.643 651.624 767.847 652.76 769.421 652.76C770.954 652.76 772.199 651.61 772.199 649.749ZM780.517 651.501C780.517 652.705 779.463 653.595 777.917 653.595C776.22 653.595 775.029 652.746 774.906 651.378H775.891C775.974 652.199 776.685 652.787 777.903 652.787C778.971 652.787 779.573 652.213 779.573 651.501C779.573 649.653 775.084 650.735 775.084 647.929C775.084 646.821 776.138 645.904 777.712 645.904C779.313 645.904 780.367 646.752 780.449 648.189H779.491C779.436 647.354 778.82 646.725 777.684 646.725C776.685 646.725 776.056 647.259 776.056 647.915C776.056 649.941 780.476 648.86 780.517 651.501ZM786.076 653.485V643.358H787.034V653.485H786.076ZM796.237 649.749C796.237 652.117 794.581 653.595 792.474 653.595C790.366 653.595 788.765 652.117 788.765 649.749C788.765 647.368 790.407 645.904 792.501 645.904C794.609 645.904 796.237 647.368 796.237 649.749ZM789.737 649.749C789.737 651.802 791.051 652.76 792.474 652.76C793.883 652.76 795.252 651.802 795.252 649.749C795.252 647.697 793.911 646.739 792.487 646.739C791.064 646.739 789.737 647.697 789.737 649.749ZM803.581 653.485V649.216C803.581 647.56 802.677 646.711 801.309 646.711C799.913 646.711 798.941 647.587 798.941 649.407V653.485H797.983V646.013H798.941V647.286C799.42 646.355 800.378 645.876 801.487 645.876C803.184 645.876 804.525 646.916 804.525 649.106V653.485H803.581ZM806.206 649.736C806.206 647.395 807.725 645.904 809.778 645.904C811.256 645.904 812.309 646.697 812.734 647.642V646.013H813.691V653.677C813.691 655.771 812.255 657.153 810.202 657.153C808.272 657.153 806.931 656.168 806.63 654.608H807.574C807.889 655.62 808.833 656.318 810.202 656.318C811.625 656.318 812.734 655.374 812.734 653.677V651.829C812.296 652.787 811.256 653.595 809.778 653.595C807.725 653.595 806.206 652.076 806.206 649.736ZM812.734 649.749C812.734 647.888 811.488 646.739 809.955 646.739C808.382 646.739 807.177 647.833 807.177 649.736C807.177 651.624 808.382 652.76 809.955 652.76C811.488 652.76 812.734 651.61 812.734 649.749ZM819.196 649.736C819.196 647.395 820.715 645.904 822.768 645.904C824.273 645.904 825.3 646.711 825.724 647.655V646.013H826.682V653.485H825.724V651.829C825.286 652.787 824.246 653.595 822.754 653.595C820.715 653.595 819.196 652.076 819.196 649.736ZM825.724 649.749C825.724 647.888 824.478 646.739 822.946 646.739C821.372 646.739 820.168 647.833 820.168 649.736C820.168 651.624 821.372 652.76 822.946 652.76C824.478 652.76 825.724 651.61 825.724 649.749ZM834.042 651.501C834.042 652.705 832.988 653.595 831.441 653.595C829.745 653.595 828.554 652.746 828.431 651.378H829.416C829.498 652.199 830.21 652.787 831.428 652.787C832.495 652.787 833.097 652.213 833.097 651.501C833.097 649.653 828.609 650.735 828.609 647.929C828.609 646.821 829.662 645.904 831.236 645.904C832.837 645.904 833.891 646.752 833.973 648.189H833.015C832.961 647.354 832.345 646.725 831.209 646.725C830.21 646.725 829.58 647.259 829.58 647.915C829.58 649.941 834.001 648.86 834.042 651.501ZM842.31 652.391L844.773 646.013H845.759L841.325 657.002H840.326L841.776 653.444L838.711 646.013H839.765L842.31 652.391ZM854.092 649.749C854.092 652.117 852.436 653.595 850.328 653.595C848.221 653.595 846.62 652.117 846.62 649.749C846.62 647.368 848.262 645.904 850.356 645.904C852.463 645.904 854.092 647.368 854.092 649.749ZM847.591 649.749C847.591 651.802 848.905 652.76 850.328 652.76C851.738 652.76 853.107 651.802 853.107 649.749C853.107 647.697 851.765 646.739 850.342 646.739C848.919 646.739 847.591 647.697 847.591 649.749ZM862.311 646.013V653.485H861.353V652.172C860.902 653.116 859.916 653.609 858.808 653.609C857.111 653.609 855.77 652.568 855.77 650.379V646.013H856.714V650.269C856.714 651.925 857.617 652.774 858.986 652.774C860.382 652.774 861.353 651.898 861.353 650.078V646.013H862.311ZM868.254 653.485V643.358H869.212V653.485H868.254ZM871.381 653.485V646.013H872.339V653.485H871.381ZM871.86 644.604C871.477 644.604 871.162 644.303 871.162 643.892C871.162 643.481 871.477 643.194 871.86 643.194C872.243 643.194 872.558 643.481 872.558 643.892C872.558 644.303 872.243 644.604 871.86 644.604ZM874.508 653.485V643.358H875.466V649.352L878.477 646.013H879.818L876.274 649.736L879.845 653.485H878.545L875.466 650.132V653.485H874.508ZM884.272 646.725C882.917 646.725 881.727 647.601 881.617 649.339H886.872C886.913 647.601 885.654 646.725 884.272 646.725ZM887.735 651.118C887.392 652.527 886.188 653.595 884.313 653.595C882.192 653.595 880.646 652.117 880.646 649.749C880.646 647.368 882.165 645.904 884.313 645.904C886.503 645.904 887.844 647.464 887.844 649.366C887.844 649.667 887.844 649.859 887.817 650.119H881.617C881.699 651.87 882.917 652.787 884.313 652.787C885.586 652.787 886.448 652.117 886.722 651.118H887.735ZM890.445 652.842C890.445 653.239 890.144 653.554 889.761 653.554C889.364 653.554 889.063 653.239 889.063 652.842C889.063 652.445 889.364 652.144 889.761 652.144C890.144 652.144 890.445 652.445 890.445 652.842Z" fill="#9B9B9B"/>
</g>
<path d="M816.347 451.844C838.832 451.844 857.06 469.766 857.06 491.874C857.06 513.981 838.832 531.903 816.347 531.903C793.861 531.903 775.633 513.981 775.633 491.874C775.633 469.766 793.861 451.844 816.347 451.844ZM816.347 459.089C797.835 459.089 782.829 473.767 782.829 491.874C782.829 509.98 797.835 524.658 816.347 524.658C834.858 524.658 849.864 509.98 849.864 491.874C849.864 473.767 834.858 459.089 816.347 459.089Z" fill="#0077C8"/>
<path d="M814.633 473.742V496.231L829.002 501.796" stroke="#BBBBBB" stroke-width="5.47407"/>
<path d="M354.612 206.093C351.209 198.786 345.086 195.191 336.972 195.191C326.212 195.191 318.781 204.003 318.781 214.906C318.781 226.247 326.598 234.636 337.566 234.636C345.532 234.636 351.075 230.997 354.627 224.289H378.658C373.962 243.741 357.035 256.324 336.838 256.324C325.675 256.309 314.98 251.913 307.126 244.113C299.272 236.312 294.908 225.752 295.003 214.774C294.872 203.886 299.174 193.397 306.951 185.645C314.728 177.893 325.334 173.521 336.407 173.502C357.213 173.502 374.111 186.363 378.525 206.093H354.612Z" fill="#BBBBBB"/>
<path d="M437.709 255.488V212.497C437.709 202.356 433.7 196.572 424.963 196.572C415.987 196.572 411.633 201.782 411.633 211.511V255.488H387.861V155.098H411.633V184.754C415.074 178.411 422.808 174.613 432.263 174.613C450.455 174.613 461.481 185.887 461.481 206.316V255.488H437.709Z" fill="#BBBBBB"/>
<path fill-rule="evenodd" clip-rule="evenodd" d="M510.002 177.829V277.238L533.474 277.195V248.267C539.86 255.105 547.93 257.905 557.124 257.905C579.621 257.905 595.333 239.388 595.333 217.327C595.333 193.182 579.488 175.175 557.124 175.175C547.369 175.175 538.736 178.66 532.514 186.344H532.085V177.829H510.002ZM551.989 197.499C562.817 197.398 571.692 205.947 571.847 216.627C571.906 221.818 569.861 226.816 566.167 230.512C562.473 234.208 557.435 236.296 552.173 236.311C541.344 236.31 532.552 227.677 532.502 216.996C532.451 206.314 541.16 197.6 551.989 197.499Z" fill="#BBBBBB"/>
<path d="M499.963 146.313C499.963 137.304 492.659 130 483.649 130C474.64 130 467.336 137.304 467.336 146.313C467.336 155.323 474.64 162.627 483.649 162.627C492.659 162.627 499.963 155.323 499.963 146.313Z" fill="#0075C9"/>
<path d="M647.203 146.313C647.203 137.304 639.899 130 630.89 130C621.88 130 614.576 137.304 614.576 146.313C614.576 155.323 621.88 162.627 630.89 162.627C639.899 162.627 647.203 155.323 647.203 146.313Z" fill="#0075C9"/>
<path d="M704.578 255.487V211.937C704.578 201.334 700.853 196.387 692.116 196.387C682.512 196.387 678.502 201.615 678.502 212.218V255.487H654.73V177.027H676.931V185.356H677.216C682.227 177.307 689.184 174.339 698.848 174.339C713.165 174.339 728.35 182.254 728.35 205.44V255.487H704.578Z" fill="#BBBBBB"/>
<path d="M643.018 255.487V176.849H619.594V255.487H643.018Z" fill="#BBBBBB"/>
<path d="M496.618 255.487V176.849H473.193V255.487H496.618Z" fill="#BBBBBB"/>
<path d="M619.368 275.565C615.943 306.378 589.735 329.699 558.532 329.699C527.328 329.699 501.12 306.378 497.695 275.565H474.029C477.39 319.457 514.217 353.368 558.524 353.368C602.831 353.368 639.659 319.457 643.019 275.565H619.368Z" fill="#0075C9"/>
<path d="M64 63.0622H71.9115V66.02H72.0136C72.7228 64.6665 74.1937 62.1074 79.0615 62.1074V70.4813C75.1568 70.5822 72.4167 71.3819 72.4167 75.5947V90.8907H64V63.0622Z" fill="#BBBCBC"/>
<path d="M102.322 63.0683V66.045H102.22C101.199 64.3288 98.6011 62.1074 93.9649 62.1074C86.4228 62.1074 79.7461 67.8602 79.7461 77.0453C79.7461 85.0691 84.9949 92.0329 93.9649 92.0329C97.2758 92.0329 100.794 90.7698 102.22 88.0458H102.322V91.0744H110.782V63.0683H102.322ZM95.2377 84.2122C90.1413 84.2122 88.2059 79.772 88.2059 77.1469C88.2059 73.9671 90.3465 69.9305 95.1877 69.9305C100.029 69.9305 102.322 73.665 102.322 77.0453C102.322 79.7695 100.539 84.2122 95.2377 84.2122Z" fill="#BBBCBC"/>
<path d="M123.334 63.021H114.891V90.8905H123.334V63.021Z" fill="#BBBCBC"/>
<path d="M126.756 90.8883H135.229V75.7461C135.229 74.041 135.229 69.9295 140.082 69.9295C144.524 69.9295 144.524 73.7409 144.524 75.6944V90.8883H152.999V73.4898C152.999 68.025 151.263 65.8179 149.733 64.5138C148.199 63.2097 145.188 62.1074 142.482 62.1074C137.426 62.1074 135.64 64.6639 134.773 66.0196H134.67V63.0621H126.756V90.8907V90.8883Z" fill="#BBBCBC"/>
<path d="M124.245 55.1399C124.245 52.3022 121.895 50 118.997 50C116.099 50 113.748 52.3022 113.748 55.1399C113.748 57.9775 116.096 60.2797 118.997 60.2797C121.897 60.2797 124.245 57.9775 124.245 55.1399Z" fill="#0077C8"/>
<defs>
<filter id="filter0_d_464_5931" x="48.9463" y="391.631" width="332.55" height="357.868" filterUnits="userSpaceOnUse" color-interpolation-filters="sRGB">
<feFlood flood-opacity="0" result="BackgroundImageFix"/>
<feColorMatrix in="SourceAlpha" type="matrix" values="0 0 0 0 0 0 0 0 0 0 0 0 0 0 0 0 0 0 127 0" result="hardAlpha"/>
<feMorphology radius="2.05278" operator="dilate" in="SourceAlpha" result="effect1_dropShadow_464_5931"/>
<feOffset dx="7.52685" dy="8.21111"/>
<feGaussianBlur stdDeviation="10.2639"/>
<feColorMatrix type="matrix" values="0 0 0 0 0.854902 0 0 0 0 0.945098 0 0 0 0 1 0 0 0 1 0"/>
<feBlend mode="normal" in2="BackgroundImageFix" result="effect1_dropShadow_464_5931"/>
<feBlend mode="normal" in="SourceGraphic" in2="effect1_dropShadow_464_5931" result="shape"/>
</filter>
<filter id="filter1_d_464_5931" x="353.442" y="391.631" width="332.55" height="357.868" filterUnits="userSpaceOnUse" color-interpolation-filters="sRGB">
<feFlood flood-opacity="0" result="BackgroundImageFix"/>
<feColorMatrix in="SourceAlpha" type="matrix" values="0 0 0 0 0 0 0 0 0 0 0 0 0 0 0 0 0 0 127 0" result="hardAlpha"/>
<feMorphology radius="2.05278" operator="dilate" in="SourceAlpha" result="effect1_dropShadow_464_5931"/>
<feOffset dx="7.52685" dy="8.21111"/>
<feGaussianBlur stdDeviation="10.2639"/>
<feColorMatrix type="matrix" values="0 0 0 0 0.854902 0 0 0 0 0.945098 0 0 0 0 1 0 0 0 1 0"/>
<feBlend mode="normal" in2="BackgroundImageFix" result="effect1_dropShadow_464_5931"/>
<feBlend mode="normal" in="SourceGraphic" in2="effect1_dropShadow_464_5931" result="shape"/>
</filter>
<filter id="filter2_d_464_5931" x="657.938" y="391.631" width="332.55" height="357.868" filterUnits="userSpaceOnUse" color-interpolation-filters="sRGB">
<feFlood flood-opacity="0" result="BackgroundImageFix"/>
<feColorMatrix in="SourceAlpha" type="matrix" values="0 0 0 0 0 0 0 0 0 0 0 0 0 0 0 0 0 0 127 0" result="hardAlpha"/>
<feMorphology radius="2.05278" operator="dilate" in="SourceAlpha" result="effect1_dropShadow_464_5931"/>
<feOffset dx="7.52685" dy="8.21111"/>
<feGaussianBlur stdDeviation="10.2639"/>
<feColorMatrix type="matrix" values="0 0 0 0 0.854902 0 0 0 0 0.945098 0 0 0 0 1 0 0 0 1 0"/>
<feBlend mode="normal" in2="BackgroundImageFix" result="effect1_dropShadow_464_5931"/>
<feBlend mode="normal" in="SourceGraphic" in2="effect1_dropShadow_464_5931" result="shape"/>
</filter>
<clipPath id="clip0_464_5931">
<rect width="226.49" height="77.3213" fill="white" transform="translate(94.793 593.485)"/>
</clipPath>
<clipPath id="clip1_464_5931">
<rect width="231.964" height="75.2685" fill="white" transform="translate(396.551 593.485)"/>
</clipPath>
<clipPath id="clip2_464_5931">
<rect width="231.964" height="78.6898" fill="white" transform="translate(701.047 593.485)"/>
</clipPath>
</defs>
</svg>
